<?xml version="1.0" encoding="UTF-8" standalone="no"?>
<!-- Created with Inkscape (http://www.inkscape.org/) -->

<svg
   width="100"
   height="70"
   viewBox="0 0 26.458333 18.520843"
   version="1.1"
   id="svg1"
   xml:space="preserve"
   inkscape:version="1.3.2 (091e20e, 2023-11-25, custom)"
   sodipodi:docname="fish.svg"
   inkscape:export-filename="ninja-cat.png"
   inkscape:export-xdpi="96"
   inkscape:export-ydpi="96"
   xmlns:inkscape="http://www.inkscape.org/namespaces/inkscape"
   xmlns:sodipodi="http://sodipodi.sourceforge.net/DTD/sodipodi-0.dtd"
   xmlns="http://www.w3.org/2000/svg"
   xmlns:svg="http://www.w3.org/2000/svg"><sodipodi:namedview
     id="namedview1"
     pagecolor="#ffffff"
     bordercolor="#000000"
     borderopacity="0.25"
     inkscape:showpageshadow="2"
     inkscape:pageopacity="0.0"
     inkscape:pagecheckerboard="0"
     inkscape:deskcolor="#d1d1d1"
     inkscape:document-units="mm"
     inkscape:zoom="2.9833398"
     inkscape:cx="72.066883"
     inkscape:cy="23.463636"
     inkscape:window-width="1440"
     inkscape:window-height="830"
     inkscape:window-x="-6"
     inkscape:window-y="-6"
     inkscape:window-maximized="1"
     inkscape:current-layer="layer1" /><defs
     id="defs1" /><g
     inkscape:label="Layer 1"
     inkscape:groupmode="layer"
     id="layer1"><path
       style="fill:#000000;stroke-width:0.114558"
       d="m 13.224487,13.182999 c -0.350972,-0.09436 -0.54811,-0.275724 -0.839533,-0.772353 l -0.225466,-0.384227 -0.870576,-0.01653 C 10.329582,11.991669 9.8381308,11.939728 9.0496594,11.773227 7.1258531,11.366978 5.5181407,10.557391 4.1446795,9.3032528 3.7308203,8.9253483 3.6137182,8.7639418 3.6137182,8.5714024 c 0,-0.1984135 0.085212,-0.3293979 0.4299327,-0.6608699 C 5.1734456,6.8241563 6.5905667,6.0244749 8.2241212,5.5514934 8.7001576,5.4136611 9.4517245,5.2507365 9.7856913,5.2129766 c 0.1021494,-0.011548 0.2015328,-0.030766 0.2208517,-0.042706 0.01932,-0.011941 0.103715,-0.2524685 0.187549,-0.5345089 0.08383,-0.2820405 0.185144,-0.5689532 0.225135,-0.6375841 0.110786,-0.1901242 0.38259,-0.421958 0.582681,-0.4969933 0.256867,-0.096327 0.467449,-0.084918 1.916178,0.1038175 1.203379,0.1567721 1.299671,0.173779 1.476314,0.2607396 0.233069,0.1147398 0.468307,0.3682775 0.560799,0.6044246 0.09939,0.2537516 0.09321,0.6201589 -0.0148,0.8778788 -0.04484,0.1069965 -0.07814,0.1968369 -0.074,0.1996445 0.0042,0.00281 0.157562,0.053305 0.340938,0.1122122 0.762806,0.2450493 1.600091,0.6218563 2.238382,1.0073498 L 17.774565,6.8658564 18.03352,6.623575 c 0.302456,-0.2829791 0.721731,-0.6049807 1.093222,-0.8395874 0.548605,-0.3464599 1.470062,-0.7365685 1.739813,-0.7365685 0.161682,0 0.335093,0.1015243 0.414384,0.2426031 l 0.06419,0.1142166 v 3.1663739 3.1663743 l -0.0682,0.100203 c -0.03751,0.05511 -0.106707,0.128737 -0.153773,0.163611 -0.187733,0.1391 -0.58404,0.04889 -1.309909,-0.298158 -0.653752,-0.312572 -1.170126,-0.660577 -1.742602,-1.174409 l -0.302677,-0.271672 -0.234049,0.142094 c -0.354424,0.215176 -0.875663,0.485656 -1.257107,0.652334 -0.19672,0.08596 -0.339233,0.165539 -0.335437,0.187307 0.0036,0.02082 0.02969,0.133294 0.05792,0.249951 0.0424,0.175239 0.04559,0.245498 0.0184,0.404244 -0.06568,0.383422 -0.300274,0.710389 -0.621238,0.865845 -0.195799,0.09483 -1.70997,0.473558 -1.882358,0.470815 -0.06895,-0.0011 -0.199274,-0.02187 -0.289605,-0.04615 z m 1.036658,-1.120943 c 0.370358,-0.09287 0.697252,-0.190463 0.72643,-0.216869 0.06183,-0.05595 0.06957,-0.187575 0.01516,-0.257777 -0.03438,-0.04436 -0.08555,-0.03669 -0.553159,0.08294 -0.2834,0.0725 -0.6687,0.156685 -0.856224,0.187067 -0.187523,0.03038 -0.340968,0.0628 -0.340989,0.07204 -2e-5,0.0092 0.04058,0.08085 0.09023,0.159128 0.06905,0.108887 0.108462,0.14233 0.167718,0.14233 0.0426,0 0.380476,-0.07599 0.750834,-0.168857 z M 12.42473,10.986572 c 1.751755,-0.144149 3.387921,-0.667276 4.702177,-1.5034159 0.593239,-0.3774229 0.58487,-0.3731552 0.732559,-0.3735724 0.177073,-5.038e-4 0.280498,0.064886 0.502615,0.3177563 0.240848,0.274197 0.767142,0.724013 1.128846,0.964808 0.272554,0.181448 0.804009,0.47481 0.860163,0.47481 0.01326,0 0.02412,-1.0366056 0.02412,-2.3035677 0,-1.7350619 -0.0087,-2.303568 -0.03537,-2.303568 -0.05578,0 -0.585345,0.2907187 -0.839785,0.461025 -0.393491,0.2633791 -0.749202,0.5617942 -1.057141,0.8868653 -0.162525,0.171566 -0.341624,0.3353026 -0.397999,0.3638592 -0.137581,0.069692 -0.309713,0.041628 -0.511835,-0.083444 C 17.446292,7.834425 17.201205,7.6818725 16.988441,7.5491263 16.111835,7.0021988 14.946828,6.5554842 13.782761,6.3199277 12.953344,6.1520904 12.628377,6.1234271 11.554968,6.1234271 c -1.077133,0 -1.397381,0.028469 -2.2414591,0.199259 C 7.6648593,6.6562726 6.1775425,7.3567229 5.0470036,8.331993 l -0.2489284,0.2147402 0.067068,0.071785 c 0.1194012,0.1277982 0.5456972,0.4751903 0.7945108,0.6474535 0.6303225,0.4363963 1.3414161,0.8061463 2.0762416,1.0795943 0.5806782,0.216084 0.7274426,0.256867 0.7274426,0.202141 0,-0.02376 0.033742,-0.143712 0.074984,-0.266568 C 8.6942265,9.8167074 8.7623893,9.0413033 8.7062204,8.3711673 8.6669126,7.9021951 8.6795856,7.8521079 8.8613368,7.7581206 c 0.1762965,-0.091166 0.3683208,-1.007e-4 0.4517187,0.2142229 0.020875,0.053645 0.042114,0.359591 0.051805,0.7461379 0.01954,0.7796291 -0.03015,1.2304022 -0.1883883,1.7089806 -0.060534,0.183083 -0.088458,0.310481 -0.070522,0.321739 0.033384,0.02095 0.6402839,0.129521 1.0083538,0.180383 0.622788,0.08606 1.649404,0.111383 2.31043,0.05699 z M 7.1643577,9.0455809 C 6.7199035,8.9103962 6.4798051,8.4016844 6.6649704,7.9874983 6.7333317,7.8345843 6.9327659,7.6396422 7.0865991,7.5753663 7.2312197,7.5149404 7.5429493,7.5222606 7.6910999,7.5895568 7.9687502,7.7156847 8.1283633,7.9712326 8.1289621,8.2905971 8.1296066,8.6183855 7.9602653,8.8916305 7.6850863,9.0069498 7.5515034,9.0629323 7.2861282,9.0826161 7.1643577,9.045578 Z M 7.5600786,8.512453 C 7.686036,8.3984631 7.6792478,8.1875277 7.5460464,8.0763859 7.3236825,7.8908498 6.991648,8.1842122 7.1304541,8.4435737 7.2071903,8.5869563 7.4370367,8.6238063 7.5600804,8.512453 Z M 13.967828,5.1245523 c 0.0907,-0.2229292 0.09171,-0.3062919 0.0044,-0.3607059 -0.04172,-0.02599 -0.560764,-0.1041521 -1.336793,-0.2013015 -1.476539,-0.1848447 -1.329131,-0.206755 -1.456335,0.2164657 -0.04332,0.1441108 -0.07875,0.2702762 -0.07875,0.2803683 0,0.010095 0.146625,0.018397 0.325834,0.018456 0.671189,2.174e-4 1.676662,0.088388 2.208834,0.1936854 0.114618,0.02268 0.22007,0.039021 0.234339,0.036314 0.01427,-0.0027 0.0586,-0.085184 0.09851,-0.1832827 z"
       id="path17" /></g></svg>
