<?xml version="1.0" encoding="UTF-8" standalone="no"?>
<!-- Created with Inkscape (http://www.inkscape.org/) -->

<svg
   width="100"
   height="100"
   viewBox="0 0 26.458333 26.458333"
   version="1.1"
   id="svg1"
   xml:space="preserve"
   inkscape:version="1.3.2 (091e20e, 2023-11-25, custom)"
   sodipodi:docname="ninja-cat.svg"
   xmlns:inkscape="http://www.inkscape.org/namespaces/inkscape"
   xmlns:sodipodi="http://sodipodi.sourceforge.net/DTD/sodipodi-0.dtd"
   xmlns="http://www.w3.org/2000/svg"
   xmlns:svg="http://www.w3.org/2000/svg"><sodipodi:namedview
     id="namedview1"
     pagecolor="#ffffff"
     bordercolor="#000000"
     borderopacity="0.25"
     inkscape:showpageshadow="2"
     inkscape:pageopacity="0.0"
     inkscape:pagecheckerboard="0"
     inkscape:deskcolor="#d1d1d1"
     inkscape:document-units="mm"
     inkscape:zoom="4.2190797"
     inkscape:cx="60.67674"
     inkscape:cy="48.351777"
     inkscape:window-width="1440"
     inkscape:window-height="830"
     inkscape:window-x="-6"
     inkscape:window-y="-6"
     inkscape:window-maximized="1"
     inkscape:current-layer="layer1" /><defs
     id="defs1" /><g
     inkscape:label="Layer 1"
     inkscape:groupmode="layer"
     id="layer1"><path
       style="fill:#000000;stroke-width:0.318861"
       d="M 8.57105,26.0571 C 7.6118827,25.809861 7.364236,25.284604 8.023286,24.895295 l 0.2524863,-0.149152 v -1.669107 -1.669109 h -1.729479 c -0.9512138,0 -1.7289413,-0.0096 -1.7282836,-0.02114 6.696e-4,-0.01156 0.284118,-1.120157 0.6299113,-2.463464 0.3457933,-1.343307 0.618005,-2.453088 0.6049149,-2.466176 -0.01309,-0.01309 -0.4371948,0.452899 -0.9424553,1.035536 -0.5052603,0.582636 -0.9843176,1.094479 -1.0645714,1.137432 -0.2200233,0.117757 -0.6876104,0.09378 -0.88637,-0.04544 -0.2187579,-0.153236 -0.2998845,-0.526097 -0.1958377,-0.900097 0.043463,-0.156219 0.4098392,-0.701645 0.8141737,-1.212053 0.4043349,-0.510407 1.2459673,-1.57119 1.8702944,-2.357296 L 6.7832097,12.685941 6.5816695,12.554485 C 5.4709987,11.830033 4.4170702,10.845158 4.0460894,10.185086 3.9424912,10.000746 3.8096709,9.8499442 3.7509364,9.8499442 c -0.058737,0 -0.447821,0.1479067 -0.8646337,0.3286928 -0.5904438,0.256078 -0.7677154,0.302963 -0.802544,0.212201 -0.051555,-0.134357 0.00201,-0.164935 0.9403005,-0.5369821 0.3828055,-0.1517865 0.6960102,-0.2882238 0.6960102,-0.3031802 0,-0.015054 -0.037025,-0.1245949 -0.082277,-0.2436235 -0.08037,-0.2113903 -0.1008957,-0.2164006 -0.8858308,-0.2164006 -0.6580271,0 -0.8035542,-0.02288 -0.8035542,-0.1265334 0,-0.1035946 0.145295,-0.1265333 0.8014665,-0.1265333 H 3.5513396 L 3.5494317,8.5634064 C 3.5475796,8.2990083 3.5204743,8.277623 2.7901487,7.9643026 2.3524502,7.776522 2.032791,7.5895805 2.032791,7.5213871 c 0,-0.1601079 0.0072,-0.1584542 0.7707938,0.1772791 0.7462654,0.3281135 0.8321386,0.3466955 0.8321386,0.1800652 0,-0.063368 0.1381921,-0.3914409 0.3070921,-0.7290535 C 4.3282618,6.3791795 5.2556314,5.4430869 6.2824033,4.7880519 6.7064077,4.5175546 7.025817,4.2536776 7.0482942,4.1553153 7.0694941,4.0625141 7.1898754,3.2355533 7.3157941,2.317625 7.441713,1.3996967 7.5707742,0.67837709 7.602597,0.71469272 7.6344199,0.75100764 7.9158669,1.4261122 8.2280345,2.2149235 8.5402017,3.0037351 8.8228926,3.6775778 8.856236,3.7123519 8.889579,3.7471259 9.2756439,3.6941349 9.7141568,3.5946119 10.352994,3.4496132 10.788112,3.4133476 11.903473,3.4121427 c 1.234264,-0.00134 1.709928,0.041065 2.657493,0.2368646 l 0.253095,0.052299 0.543039,-1.2493801 c 0.739952,-1.70241463 0.946291,-2.15063697 0.975732,-2.11952308 0.01379,0.0145679 0.105948,0.78577788 0.204812,1.71379108 0.248907,2.3365513 0.216251,2.2106777 0.627571,2.4189192 1.082616,0.5481018 2.562955,1.8721529 3.049265,2.7273375 0.131933,0.2320018 0.245573,0.4311144 0.252536,0.4424694 0.007,0.01135 0.349006,-0.093047 0.760095,-0.2320019 0.874886,-0.2957302 0.800146,-0.2834634 0.800146,-0.1313349 0,0.077677 -0.257936,0.2053167 -0.7171,0.3548483 -0.651698,0.2122357 -0.716984,0.2531091 -0.71581,0.4481483 0.0024,0.3841751 0.102481,0.4401432 0.873782,0.4882656 0.572561,0.03571 0.727858,0.072577 0.727858,0.1726973 0,0.1080259 -0.114832,0.1191471 -0.759283,0.073388 C 20.99887,8.777855 20.67742,8.787499 20.67742,8.831522 c 0,0.04211 -0.01867,0.1271126 -0.04149,0.188887 -0.02613,0.070782 0.207953,0.2677786 0.632738,0.5324831 0.370822,0.2310832 0.674224,0.4683479 0.674224,0.5272829 0,0.17203 -0.130541,0.12816 -0.685152,-0.2303025 -0.287165,-0.1856138 -0.563687,-0.3373697 -0.614494,-0.3372596 -0.0508,1.1e-4 -0.204232,0.2142565 -0.340939,0.4758778 -0.489928,0.9375883 -1.616472,1.8650653 -3.390968,2.7917733 -0.810936,0.423501 -0.874232,0.47401 -0.773161,0.616972 0.06055,0.08564 0.776802,1.002436 1.591683,2.037319 1.821249,2.31295 1.766446,2.232099 1.766446,2.606102 0,0.454478 -0.266661,0.751889 -0.674142,0.751889 -0.17844,0 -0.379158,-0.02114 -0.44604,-0.04665 -0.06689,-0.02578 -0.476256,-0.460934 -0.909722,-0.967265 -0.433465,-0.506334 -0.801045,-0.907676 -0.816846,-0.891876 -0.01582,0.01593 0.104946,0.554708 0.26832,1.197575 0.325836,1.282124 0.329183,1.287111 1.126839,1.678832 1.120678,0.550356 2.148885,0.314264 2.558487,-0.587472 0.326913,-0.719696 0.148695,-1.439942 -0.546921,-2.21031 l -0.392932,-0.435095 0.317212,-0.246599 c 1.310942,-1.019123 2.859949,-1.525664 3.559398,-1.163965 0.774197,0.400351 1.093802,1.554361 0.92683,3.346547 -0.08074,0.866615 -0.324705,1.51402 -0.893111,2.370009 -1.212442,1.825881 -2.869884,2.724518 -4.507224,2.443745 C 18.08723,23.112106 17.01103,22.57964 16.228071,21.875691 15.85251,21.538032 15.755322,21.492298 15.413307,21.492298 H 15.02497 v 1.971198 c 0,1.89434 -0.0071,1.980262 -0.182896,2.203709 -0.451784,0.57435 -1.561124,0.61898 -2.225136,0.08951 -0.304377,-0.242697 -0.23831,-0.551654 0.17222,-0.805376 l 0.295418,-0.182573 v -1.62574 -1.625729 l -0.696021,-0.05419 c -0.382806,-0.0298 -1.009216,-0.05442 -1.392021,-0.05469 l -0.69601,-5.1e-4 -3.14e-4,1.9193 c -2.89e-4,1.754773 -0.01443,1.942452 -0.165,2.18939 -0.2738572,0.449143 -0.9765396,0.691945 -1.5641655,0.540476 z m 6.315067,-7.385979 c 0.536708,0.03594 0.898129,0.02867 0.898129,-0.01767 0,-0.04289 -0.193154,-0.266359 -0.429231,-0.496611 l -0.42923,-0.418654 0.03447,-0.696008 c 0.01897,-0.382807 0.0091,-0.696011 -0.02213,-0.696011 -0.03112,0 -0.222997,0.120542 -0.42639,0.267893 l -0.369806,0.267899 -0.867971,-0.122589 c -0.989473,-0.139884 -0.965353,-0.170901 -0.45334,0.583058 l 0.330604,0.486841 -0.116002,0.71368 c -0.197306,1.213887 -0.199782,1.210324 0.416698,0.599324 l 0.536074,-0.531307 z m -1.048132,-0.771403 c -0.13972,-0.168355 -0.0054,-0.414752 0.225975,-0.414752 0.292904,0 0.231582,0.539912 -0.06214,0.547079 -0.02912,7.01e-4 -0.102843,-0.05885 -0.163838,-0.132323 z M 8.6975974,8.8373167 c 0.8462975,-0.172234 3.8974176,-0.2796232 5.5258976,-0.1945054 1.742004,0.091084 2.04554,0.055085 2.383241,-0.2826179 C 16.785411,8.1815212 16.810781,8.0935565 16.775057,7.7766265 16.751924,7.571388 16.687755,7.3489454 16.632461,7.2823209 16.480079,7.0987108 15.406857,6.6771013 14.469351,6.4325538 12.315421,5.8707034 9.8012068,6.0792603 7.8810892,6.9790576 7.0012895,7.3913456 6.7563082,7.6260788 6.7598887,8.0533565 c 0.00146,0.1761119 0.052524,0.3858323 0.1134458,0.4660469 0.2851114,0.3754193 0.9620713,0.4933911 1.8242629,0.3179133 z M 8.2757728,8.2470124 C 7.9281874,7.8994272 8.1881887,7.3189989 8.6914741,7.3189989 c 0.1668472,0 0.3041782,0.072725 0.4233021,0.2241678 0.4227697,0.5374649 -0.3538627,1.188985 -0.8390034,0.7038457 z M 14.434408,8.1383396 C 14.130974,7.9855733 14.086844,7.394735 14.364348,7.2003622 c 0.610958,-0.427933 1.276661,0.411442 0.691415,0.8717973 -0.257603,0.2026311 -0.33414,0.2107832 -0.621358,0.06618 z"
       id="path1" /></g></svg>
