<?xml version="1.0" encoding="UTF-8" standalone="no"?>
<!-- Created with Inkscape (http://www.inkscape.org/) -->

<svg
   width="100"
   height="100"
   viewBox="0 0 26.458333 26.458333"
   version="1.1"
   id="svg1"
   xml:space="preserve"
   inkscape:version="1.3.2 (091e20e, 2023-11-25, custom)"
   sodipodi:docname="ninja-cat.svg"
   inkscape:export-filename="ninja-cat.png"
   inkscape:export-xdpi="96"
   inkscape:export-ydpi="96"
   xmlns:inkscape="http://www.inkscape.org/namespaces/inkscape"
   xmlns:sodipodi="http://sodipodi.sourceforge.net/DTD/sodipodi-0.dtd"
   xmlns="http://www.w3.org/2000/svg"
   xmlns:svg="http://www.w3.org/2000/svg"><sodipodi:namedview
     id="namedview1"
     pagecolor="#ffffff"
     bordercolor="#000000"
     borderopacity="0.25"
     inkscape:showpageshadow="2"
     inkscape:pageopacity="0.0"
     inkscape:pagecheckerboard="0"
     inkscape:deskcolor="#d1d1d1"
     inkscape:document-units="mm"
     inkscape:zoom="1.4916699"
     inkscape:cx="116.64779"
     inkscape:cy="87.150648"
     inkscape:window-width="1440"
     inkscape:window-height="830"
     inkscape:window-x="-6"
     inkscape:window-y="-6"
     inkscape:window-maximized="1"
     inkscape:current-layer="layer1" /><defs
     id="defs1" /><g
     inkscape:label="Layer 1"
     inkscape:groupmode="layer"
     id="layer1"><path
       style="fill:#000000;stroke-width:1.35961"
       d="M 7.2257266,25.285298 C 6.5817124,25.192219 6.4819657,24.874921 6.5858999,23.249963 l 0.093065,-1.45507 -0.6908638,0.339035 C 5.6081262,22.320395 5.1007447,22.573088 4.8605856,22.695465 4.6204278,22.817843 4.1619435,22.916152 3.841733,22.913931 3.0296148,22.908331 1.3125469,22.615839 1.1146092,22.449441 0.92196442,22.28749 0.87986952,22.322263 1.8040264,21.880076 c 1.9768,-0.945837 4.9220274,-2.5985 5.0175279,-2.815499 0.059238,-0.134602 0.1516607,-0.701726 0.2053925,-1.260289 0.091298,-0.949019 0.080748,-1.007811 -0.1610298,-0.897146 -0.6561243,0.300327 -1.2470947,0.983598 -1.3047681,1.50855 -0.075119,0.683724 -0.4412988,1.096681 -1.1625717,1.311072 C 3.871188,19.883526 3.7646244,19.877862 3.2473599,19.665582 2.5490427,19.379003 2.0969063,18.697169 2.2405657,18.147307 2.2934003,17.945091 2.5442786,17.563348 2.7980775,17.29899 3.0518776,17.034633 3.4232747,16.585071 3.6234069,16.299965 4.1656515,15.527489 5.7762766,14.227879 6.7935848,13.741956 7.2867025,13.506416 7.6904231,13.286169 7.6907399,13.25252 7.6910553,13.21887 7.3571305,13.000693 6.9486839,12.767679 5.7299547,12.072408 4.7608993,10.819692 4.2480236,9.276485 3.9611781,8.4133842 3.8431093,5.7936194 4.0427045,4.7207575 4.3403699,3.1207469 5.3651707,1.3666623 6.0502032,1.2846504 6.5636649,1.2231823 7.556092,1.7304904 8.5392768,2.5570163 l 0.9189024,0.7724882 1.1720688,-0.112372 c 0.728799,-0.06987 1.730025,-0.067681 2.64738,0.00585 L 14.752941,3.34116 15.303473,2.7997148 c 0.740014,-0.7277976 2.239639,-1.6606643 2.669592,-1.6606643 0.457102,0 1.262446,1.007368 1.725816,2.1587447 1.554288,3.862075 0.290923,8.1147038 -2.884675,9.7101438 l -0.563721,0.283216 0.391494,0.17244 c 0.367518,0.16188 0.443994,0.143862 1.248833,-0.294227 0.690649,-0.375933 0.842589,-0.516084 0.781462,-0.720828 -0.08945,-0.299623 0.274139,-0.602066 0.598142,-0.497545 0.145305,0.04688 0.9404,-0.434753 2.294274,-1.389754 1.306181,-0.9213549 2.195612,-1.4628479 2.406625,-1.4651715 0.787495,-0.0087 1.484664,0.5829023 1.484664,1.2597865 0,0.324228 -1.279601,1.409263 -2.983785,2.530093 -0.794116,0.522284 -1.187767,0.867721 -1.237869,1.086255 -0.05486,0.239284 -0.174661,0.330242 -0.47304,0.359152 -0.225856,0.02189 -0.399573,-0.02102 -0.399573,-0.09868 0,-0.13395 -0.454787,0.04799 -1.070031,0.428075 -0.254303,0.1571 -0.227228,0.213534 0.479939,1.000424 2.132841,2.37329 2.237043,2.564759 1.802581,3.312212 -0.376561,0.64784 -1.18247,0.969549 -1.94665,0.777075 -0.738929,-0.186113 -1.157995,-0.645862 -1.157995,-1.270412 0,-0.42343 -0.09657,-0.571592 -0.706959,-1.08473 -0.725131,-0.609591 -1.11877,-0.761807 -0.983187,-0.380187 0.159137,0.447918 0.831866,5.291381 0.917173,6.60338 l 0.08925,1.372531 -0.422274,0.136941 c -0.48161,0.156183 -2.169729,0.10284 -2.381579,-0.07526 -0.0774,-0.06508 -0.243664,-0.530496 -0.369467,-1.034275 -0.46312,-1.854593 -1.08489,-2.444171 -2.578491,-2.444993 -1.457159,-8.01e-4 -2.1039978,0.740302 -2.3683308,2.713467 -0.05121,0.382251 -0.182688,0.757503 -0.292178,0.833892 -0.22118,0.154315 -1.5265809,0.254326 -2.1477782,0.164546 z M 5.2244645,21.929009 c 0.6003952,-0.273351 1.1697763,-0.56165 1.2652918,-0.640665 0.095513,-0.07902 0.2200995,-0.442405 0.2768537,-0.807532 L 6.8698045,19.816943 6.3018496,20.11097 c -0.3123763,0.161716 -1.2833801,0.666937 -2.1577875,1.122715 -0.8744073,0.455777 -1.644005,0.828687 -1.7102181,0.828687 -0.066213,0 -0.1203801,0.05173 -0.1203801,0.114968 0,0.104441 0.4710853,0.178824 1.4555044,0.229816 0.2001322,0.01031 0.855109,-0.204803 1.4555057,-0.478152 z m 5.1257985,-1.090228 c -0.02267,-0.23554 -0.105371,-0.629402 -0.183751,-0.875248 -0.111879,-0.350932 -0.2010228,-0.434128 -0.4147848,-0.387135 -0.281494,0.06189 -0.447088,0.562637 -0.450248,1.361539 -0.0015,0.393438 0.01405,0.403964 0.544213,0.367078 0.5273478,-0.0367 0.5444188,-0.05247 0.5045708,-0.466234 z M 8.6010421,20.576817 c 0.6023971,-1.075498 0.4759461,-1.322503 -0.4144639,-0.809598 -0.7106598,0.409363 -0.8935018,0.762256 -0.5569312,1.074904 0.3694393,0.343181 0.6777382,0.25898 0.9713951,-0.265306 z m 1.2846391,-1.579074 c 0.08767,-0.137705 0.1390948,-0.426777 0.11429,-0.642384 -0.03803,-0.330553 -0.111096,-0.398345 -0.465967,-0.4324 -0.239042,-0.02294 -0.473877,0.02992 -0.5435852,0.12235 -0.1888088,0.250378 -0.1496615,1.052422 0.054747,1.121764 0.38733,0.131392 0.687576,0.0709 0.840514,-0.169337 z M 8.426577,18.63632 c 0,-0.477783 -0.012101,-0.489436 -0.5094263,-0.489436 -0.4972972,0 -0.5094263,0.01169 -0.5094263,0.489436 0,0.477783 0.012101,0.489436 0.5094263,0.489436 0.4972972,0 0.5094263,-0.0117 0.5094263,-0.489436 z m 8.103321,0.04602 c -0.04708,-0.243878 -0.122624,-0.474541 -0.167871,-0.512582 -0.04525,-0.03804 -1.390756,-0.09331 -2.990008,-0.122813 l -2.907735,-0.05365 v 0.372687 c 0,0.204979 -0.03976,0.459784 -0.08834,0.566234 -0.0789,0.172831 0.250291,0.193545 3.075602,0.193545 h 3.163953 z m 2.641191,-4.59313 c 0.37466,-0.212797 0.710476,-0.407181 0.746258,-0.431964 0.03578,-0.02479 -0.103041,-0.186376 -0.308502,-0.359096 l -0.373559,-0.314037 -0.826571,0.461367 -0.826573,0.461366 0.407321,0.280235 c 0.224028,0.154129 0.42827,0.282215 0.453872,0.284636 0.0256,0.0025 0.353092,-0.169709 0.727754,-0.382507 z m 1.918379,-1.203761 c 0,-0.289168 -0.531385,-0.774998 -0.733059,-0.670216 -0.07713,0.04007 -0.140244,0.152207 -0.140244,0.24918 0,0.200754 0.508305,0.665755 0.727753,0.665755 0.08005,0 0.14555,-0.110132 0.14555,-0.244719 z m 0.750311,-0.563309 c -0.07134,-0.329593 -0.307175,-0.537922 -0.608956,-0.537922 -0.195266,0 -0.240377,0.06827 -0.181922,0.275309 0.148047,0.524356 0.90169,0.774606 0.790878,0.262613 z m 0.773081,-0.568511 c -0.09703,-0.274586 -0.45466,-0.581206 -0.677907,-0.581206 -0.228185,0 -0.114493,0.601224 0.136981,0.724354 0.43948,0.215186 0.648043,0.159994 0.540926,-0.143148 z m 0.715538,-0.660167 c -0.04418,-0.142055 -0.238537,-0.318875 -0.431883,-0.392933 -0.326539,-0.125071 -0.35154,-0.110065 -0.35154,0.211104 0,0.239246 0.100879,0.384995 0.327488,0.473134 0.400228,0.155672 0.562688,0.05187 0.455935,-0.291305 z M 9.8920522,10.84131 c 1.0697638,-0.282483 3.4223608,-0.282483 4.4921248,0 1.933089,0.510457 3.394228,-0.03598 3.603505,-1.3476459 C 18.22822,7.9860635 16.776498,6.8958109 13.921712,6.440096 11.050147,5.9817014 8.0201495,6.6035513 6.7695563,7.9079415 6.3753925,8.3190597 6.3210529,8.4690997 6.3187334,9.1527304 c -0.00204,0.5957397 0.067776,0.8581226 0.2988088,1.1232016 0.6569348,0.75376 1.8082856,0.952553 3.27451,0.565378 z M 8.426577,9.5817561 C 7.6925862,8.9647164 8.5912544,7.8200358 9.4244912,8.3106642 c 0.419311,0.2469 0.529907,0.8198419 0.232029,1.2020236 -0.297116,0.3812059 -0.8234835,0.4107638 -1.2299432,0.069068 z m 6.194149,-0.027233 c -0.325907,-0.3911574 -0.279541,-0.7958868 0.130686,-1.1407456 0.446404,-0.3752761 0.585682,-0.3752761 1.032085,0 0.395219,0.3322457 0.440516,0.5616558 0.189922,0.9618875 -0.330855,0.5284189 -0.988941,0.6154336 -1.352688,0.1788584 z m 9.44764,1.0978689 C 23.880344,10.12028 23.14544,9.8854799 23.246404,10.389777 c 0.05267,0.263069 0.420006,0.53792 0.718926,0.53792 0.139525,0 0.170794,-0.08355 0.103029,-0.275305 z M 24.673737,9.8939295 C 24.402682,9.5461611 23.761982,9.4463601 23.912131,9.7752901 c 0.0486,0.1064466 0.08834,0.2458779 0.08834,0.3098379 0,0.167064 0.630384,0.34698 0.785777,0.224268 0.07627,-0.06024 0.02935,-0.233457 -0.112521,-0.4154721 z"
       id="path8" /></g></svg>
