<?xml version="1.0" encoding="UTF-8" standalone="no"?>
<!-- Created with Inkscape (http://www.inkscape.org/) -->

<svg
   width="100"
   height="100"
   viewBox="0 0 26.458333 26.458333"
   version="1.1"
   id="svg1"
   xml:space="preserve"
   inkscape:version="1.3.2 (091e20e, 2023-11-25, custom)"
   sodipodi:docname="prototype.game.svg"
   inkscape:export-filename="food-1.png"
   inkscape:export-xdpi="96"
   inkscape:export-ydpi="96"
   xmlns:inkscape="http://www.inkscape.org/namespaces/inkscape"
   xmlns:sodipodi="http://sodipodi.sourceforge.net/DTD/sodipodi-0.dtd"
   xmlns="http://www.w3.org/2000/svg"
   xmlns:svg="http://www.w3.org/2000/svg"><sodipodi:namedview
     id="namedview1"
     pagecolor="#ffffff"
     bordercolor="#000000"
     borderopacity="0.25"
     inkscape:showpageshadow="2"
     inkscape:pageopacity="0.0"
     inkscape:pagecheckerboard="0"
     inkscape:deskcolor="#d1d1d1"
     inkscape:document-units="mm"
     inkscape:zoom="2.1095398"
     inkscape:cx="111.3987"
     inkscape:cy="122.77559"
     inkscape:window-width="1440"
     inkscape:window-height="830"
     inkscape:window-x="-6"
     inkscape:window-y="-6"
     inkscape:window-maximized="1"
     inkscape:current-layer="layer1" /><defs
     id="defs1"><filter
       inkscape:collect="always"
       style="color-interpolation-filters:sRGB"
       id="filter111"
       x="-0.46710383"
       y="-0.57903233"
       width="1.9342077"
       height="2.1580647"><feGaussianBlur
         inkscape:collect="always"
         stdDeviation="0.94734535"
         id="feGaussianBlur111" /></filter><filter
       inkscape:collect="always"
       style="color-interpolation-filters:sRGB"
       id="filter111-6"
       x="-1.0840184"
       y="-1.3437735"
       width="3.1680369"
       height="3.6875469"><feGaussianBlur
         inkscape:collect="always"
         stdDeviation="2.1985258"
         id="feGaussianBlur111-5" /></filter><filter
       inkscape:collect="always"
       style="color-interpolation-filters:sRGB"
       id="filter111-4"
       x="-0.46710383"
       y="-0.57903233"
       width="1.9342077"
       height="2.1580647"><feGaussianBlur
         inkscape:collect="always"
         stdDeviation="0.94734535"
         id="feGaussianBlur111-9" /></filter><filter
       inkscape:collect="always"
       style="color-interpolation-filters:sRGB"
       id="filter111-67"
       x="-0.46710383"
       y="-0.57903233"
       width="1.9342077"
       height="2.1580647"><feGaussianBlur
         inkscape:collect="always"
         stdDeviation="0.94734535"
         id="feGaussianBlur111-2" /></filter><filter
       inkscape:collect="always"
       style="color-interpolation-filters:sRGB"
       id="filter111-2"
       x="-0.46710383"
       y="-0.57903233"
       width="1.9342077"
       height="2.1580647"><feGaussianBlur
         inkscape:collect="always"
         stdDeviation="0.94734535"
         id="feGaussianBlur111-8" /></filter></defs><g
     inkscape:label="Layer 1"
     inkscape:groupmode="layer"
     id="layer1"><rect
       style="opacity:0.276392;fill:#ff8080;stroke:none;stroke-width:3.70655;stroke-linecap:round;paint-order:stroke markers fill;filter:url(#filter111-2)"
       id="rect111-8"
       width="4.8675022"
       height="3.9266009"
       x="17.640013"
       y="1.698853"
       rx="5.2916665"
       ry="3.9266009"
       transform="matrix(0.7079483,0,0,0.73054429,5.1874346,10.113578)" /><rect
       style="opacity:0.276392;fill:#ff9955;stroke:none;stroke-width:3.70655;stroke-linecap:round;paint-order:stroke markers fill;filter:url(#filter111)"
       id="rect140"
       width="4.8675022"
       height="3.9266009"
       x="17.640013"
       y="1.698853"
       rx="5.2916665"
       ry="3.9266009"
       transform="matrix(0.7079483,0,0,0.73054429,-6.7406157,17.640307)" /><rect
       style="opacity:1;fill:#ff002c;fill-opacity:1;stroke:none;stroke-width:3.70655;stroke-linecap:round;paint-order:stroke markers fill;filter:url(#filter111-6)"
       id="rect111-7"
       width="4.8675022"
       height="3.9266009"
       x="4.2322531"
       y="2.5151908"
       rx="5.2916665"
       ry="3.9266009"
       transform="matrix(0.42415276,0,0,0.42415276,3.8386005,2.5789269)" /><path
       style="fill:#000000;stroke-width:0.250988"
       d="M 9.6386653,6.2342284 C 9.4036972,6.1478325 9.3066277,5.992302 9.3066277,5.7022197 9.3066277,5.0720463 9.0027682,4.9669893 8.5665253,5.4463354 8.2860231,5.7545503 7.906762,5.9493033 7.5870428,5.9493033 c -0.3149,0 -0.7567278,-0.191288 -1.0077788,-0.4363142 C 6.3425416,5.2819497 6.3419848,5.2818 6.2200797,5.4165053 6.1529273,5.4907079 5.980092,5.5831645 5.8359993,5.621964 5.6042594,5.6843657 5.5319346,5.6719193 5.2094417,5.5141392 4.9224265,5.3737145 4.7813938,5.3429238 4.5464937,5.3694004 4.1516384,5.4139074 4.0935981,5.4821505 4.2374405,5.7327824 4.4206528,6.0520128 4.29289,6.1485254 3.6870749,6.1485254 3.417617,6.1485254 3.1970835,6.1261114 3.1970013,6.098717 3.1969191,6.0713227 3.4005876,6.0586189 3.649598,6.0704845 4.2099797,6.0971821 4.3259901,6.0092181 4.1453938,5.6945462 3.9932525,5.4294552 4.0753196,5.343473 4.5213897,5.3006114 4.8901798,5.2651778 4.8949004,5.2595661 4.757723,5.0195997 4.4937962,4.5579073 4.7425861,3.8331263 5.253523,3.5752396 5.5875735,3.4066318 5.8409361,3.391618 6.1983792,3.5192491 6.4344109,3.6035298 6.4507528,3.5994237 6.6300266,3.4107951 6.8991965,3.1275763 7.1298022,3.0273788 7.5124641,3.0273788 c 0.3268826,0 0.8572688,0.1621437 0.780735,0.2386781 -0.020732,0.020743 -0.1000391,0.00435 -0.1762164,-0.036413 -0.1451672,-0.07769 -0.175652,-0.031678 -0.079524,0.1200252 0.045051,0.071097 0.087334,0.073602 0.2024498,0.011996 0.1127767,-0.060355 0.1680493,-0.059163 0.2457256,0.00528 0.3030458,0.251506 0.5106936,1.1050143 0.3682501,1.5136336 -0.070468,0.2021407 -0.068176,0.205407 0.1440824,0.205407 0.2974716,0 0.3750695,0.1036587 0.3750695,0.5010443 0,0.4019414 0.1297032,0.5614736 0.4564955,0.5614736 0.2270794,0 0.5396154,-0.2453043 0.5396154,-0.4235346 0,-0.053646 0.07737,-0.1894771 0.17192,-0.3018516 0.172569,-0.205087 0.292931,-0.2617524 0.292931,-0.1379101 0,0.036522 -0.04647,0.066408 -0.103267,0.066408 -0.06122,0 -0.168526,0.1475686 -0.263566,0.3624681 -0.200097,0.452456 -0.5001796,0.640844 -0.8284997,0.5201227 z M 7.8393919,5.8217713 C 7.9785522,5.7336712 7.8891513,4.8073216 7.6819139,4.1899642 7.5050301,3.6630381 7.2267438,3.1601943 7.1120146,3.1601943 c -0.1948297,0 -0.7273092,0.5823756 -0.7273092,0.7954647 0,0.1044708 0.3366434,0.077228 0.6193865,-0.050124 L 7.2582377,3.7910632 7.089102,3.542036 C 6.9960783,3.4050708 6.9476899,3.2930081 6.9815733,3.2930081 c 0.098114,0 0.4026986,0.5651759 0.547052,1.0150903 0.086732,0.2703185 0.1348789,0.6131059 0.1395822,0.9937328 0.00392,0.3195852 0.023089,0.5806066 0.042515,0.5800476 0.019426,-5.443e-4 0.077335,-0.027607 0.1286694,-0.060107 z M 7.5800377,5.4590735 V 5.1016581 L 7.3310094,5.1905295 C 7.1940453,5.2394071 6.9547249,5.280712 6.7991879,5.2823149 6.5324645,5.2850364 6.5211426,5.292847 6.5999657,5.4192491 6.7067133,5.5904325 7.1603349,5.816368 7.397416,5.8164361 7.5740244,5.8164867 7.5800377,5.8047229 7.5800377,5.4590735 Z M 8.2204825,5.6494612 C 8.2417154,5.5941201 8.2236938,5.3067592 8.1804333,5.0108807 8.040635,4.0547995 7.6358758,3.0953443 7.3718739,3.0942405 c -0.088175,-3.767e-4 -0.06615,0.079398 0.1173271,0.4249269 0.2761979,0.5201453 0.4892794,1.3228122 0.4892794,1.8430924 0,0.3039913 0.02199,0.3878213 0.1016927,0.3878213 0.055933,0 0.1190715,-0.04528 0.1403077,-0.1006199 z M 5.7206301,5.5275648 c 0,-0.1416445 -0.1613959,-0.4317317 -0.2200365,-0.3954888 -0.040855,0.02525 -0.179891,0.064301 -0.3089672,0.086779 L 4.9569451,5.2597262 5.189373,5.4050457 c 0.196486,0.12285 0.5312571,0.2000566 0.5312571,0.1225218 z m 0.2349023,-0.04712 C 6.0202251,5.3757709 5.8526221,5.0196019 5.7386735,5.0196019 c -0.068299,0 -0.083627,0.035766 -0.049814,0.1162129 0.026866,0.063917 0.06343,0.1834501 0.081252,0.2656293 0.03465,0.1597674 0.1144809,0.1937803 0.1854178,0.079001 z m 2.47193,-0.4767824 C 8.3593973,4.5404676 8.0238229,3.4740176 7.8735061,3.2432046 7.8199856,3.161026 7.7300263,3.0937882 7.6735938,3.0937882 c -0.086127,0 -0.081883,0.029327 0.02642,0.1826206 0.2052834,0.2905667 0.4662334,1.0925924 0.5548048,1.7051965 0.059274,0.4099506 0.1023432,0.546807 0.1576435,0.5009131 0.054573,-0.045291 0.058814,-0.1806954 0.015006,-0.4788556 z M 6.0918041,5.0567642 C 6.0352868,4.921495 5.9608861,4.8282225 5.9264709,4.8494924 c -0.03668,0.022665 -0.016639,0.1467762 0.048415,0.2998835 0.061043,0.143666 0.1354433,0.2369379 0.165336,0.2072717 0.029893,-0.029664 0.00811,-0.1646143 -0.048415,-0.2998834 z m 2.6060432,0.012644 c 0.1377076,-0.4530996 0.1541698,-0.5961163 0.063816,-0.5544026 -0.04725,0.021815 -0.1398908,0.058548 -0.2058729,0.081634 -0.070279,0.024591 -0.1046624,0.081867 -0.08301,0.1382889 0.020329,0.052976 0.036958,0.1984624 0.036958,0.3233094 0,0.2872825 0.1023458,0.29336 0.1881082,0.011169 z M 6.2464986,4.9311573 C 6.2089913,4.7953106 6.1495467,4.7019353 6.1144005,4.7236559 c -0.035145,0.021723 -0.049368,0.063005 -0.031607,0.091743 0.017771,0.028739 0.063909,0.1354096 0.102551,0.2370474 0.099251,0.2610464 0.142848,0.1745787 0.061154,-0.121289 z M 5.651134,4.9541102 C 5.9701701,4.7904604 6.1613933,4.5675239 6.2200617,4.2908318 L 6.2689829,4.0601195 5.9699154,4.3678369 C 5.6328958,4.7146054 5.3977393,4.8541347 5.035932,4.9220099 4.8277323,4.9610685 4.8005127,4.9843343 4.8679508,5.0655926 4.96498,5.1825066 5.2984034,5.1350457 5.6511351,4.9541102 Z m 1.840802,0.049237 C 7.6619878,4.8332938 7.57231,4.8084462 7.2207903,4.9282212 c -0.1883543,0.064179 -0.4202199,0.09339 -0.5757249,0.072533 -0.2036168,-0.027313 -0.26036,-0.013009 -0.26036,0.065628 0,0.1497408 0.9484501,0.095746 1.1072306,-0.063035 z M 7.1695384,4.8510094 c 0.2628202,-0.078049 0.3440905,-0.1329456 0.3440905,-0.2324258 0,-0.071633 -0.00748,-0.1297919 -0.01659,-0.1292422 -0.00913,5.443e-4 -0.1361335,0.044061 -0.2822314,0.096697 -0.1460952,0.052633 -0.4075749,0.097008 -0.5810633,0.098611 -0.2279402,0.00212 -0.3154345,0.029261 -0.3154345,0.097907 0,0.086705 0.1270024,0.1376314 0.4029919,0.1615934 0.057288,0.00495 0.2589998,-0.036941 0.4482505,-0.09314 z M 5.5012435,4.6502317 C 5.7977762,4.4764509 6.4045808,3.7773421 6.3439851,3.6792951 6.2819077,3.578851 6.1283633,3.6239801 6.0868173,3.7548807 6.0185633,3.9699266 5.3965261,4.4800639 5.0543912,4.6015793 4.8781171,4.6641868 4.748489,4.739029 4.7663293,4.7678956 4.8333935,4.8764084 5.2212681,4.8143076 5.5012435,4.6502317 Z M 5.2059729,4.4549491 c 0.063917,-0.025974 0.1162129,-0.06016 0.1162129,-0.075969 0,-0.060843 -0.2701465,-0.5547118 -0.3034301,-0.5547118 -0.053352,0 -0.2911165,0.5490169 -0.2927776,0.67604 -0.00152,0.1122139 0.1206249,0.1006765 0.4799948,-0.045356 z m 2.0617301,0.02746 c 0.1003826,-0.045737 0.1795192,-0.1356442 0.1795192,-0.2039499 0,-0.1464871 0.00648,-0.1458252 -0.2750608,-0.028195 C 7.0484818,4.3019397 6.8000081,4.3565662 6.6199996,4.3716535 6.2881198,4.399467 6.1453753,4.5148895 6.3644277,4.578302 6.5443062,4.630375 7.0640606,4.575202 7.267703,4.482412 Z M 8.6914045,4.4533221 C 8.7747955,4.3949121 8.8203577,4.3105699 8.7988254,4.2544608 8.7666794,4.1706878 8.7344814,4.1729508 8.569181,4.2705938 8.3721599,4.386977 8.3437505,4.4330298 8.4211954,4.5104769 c 0.064923,0.064922 0.1093254,0.05553 0.2702091,-0.057157 z M 5.4574435,4.029387 C 5.3696401,3.8174104 5.2097204,3.6489686 5.1515261,3.7071651 c -0.01905,0.01905 0.032456,0.1727401 0.1144635,0.3415323 0.1670679,0.3438766 0.3348815,0.3269507 0.1914539,-0.01931 z m 1.652192,0.1545943 C 7.2781916,4.1165394 7.3601193,4.0468322 7.3381429,3.9895615 7.3096382,3.9152865 7.25872,3.9162156 7.0351668,3.9950861 c -0.1477945,0.052143 -0.3695505,0.094809 -0.4927929,0.094809 -0.1549079,0 -0.2240779,0.030747 -0.2240779,0.099611 0,0.1356649 0.4462551,0.1325477 0.7913395,-0.00552 z M 8.6564869,4.1051245 C 8.7633379,4.0134789 8.7624142,3.9928055 8.6408275,3.7544899 8.5697704,3.6152044 8.4810531,3.4823454 8.4436813,3.4592477 8.3397042,3.3949866 8.1112899,3.4891784 8.1112899,3.5963179 c 0,0.1082047 0.1702978,0.1292542 0.2324252,0.028728 0.022566,-0.036522 0.076632,-0.065461 0.1201329,-0.064304 0.0435,0.00114 -0.00152,0.062338 -0.1002422,0.1359572 -0.108866,0.081258 -0.1644248,0.1726949 -0.1413968,0.232705 0.03342,0.087091 0.056455,0.086717 0.1935947,-0.00316 C 8.6539091,3.7702364 8.699662,3.8094756 8.4846651,3.9853029 8.3775958,4.0728668 8.3139177,4.174485 8.339837,4.2164235 8.3883663,4.2949456 8.4676428,4.2670755 8.656482,4.1051087 Z M 5.7203814,4.0732941 C 5.7201304,3.95094 5.4678521,3.5586369 5.3895711,3.5586369 c -0.095958,0 -0.085986,0.040719 0.082033,0.3349709 0.1500081,0.2627087 0.2492411,0.3343825 0.2487773,0.1796863 z M 6.0526677,3.6176875 c 0,-0.032478 -0.1053601,-0.059051 -0.2341321,-0.059051 H 5.5844062 L 5.694289,3.7711279 5.8041717,3.9836178 5.9284184,3.8301779 C 5.9967551,3.7457861 6.0526677,3.6501655 6.0526677,3.6176875 Z"
       id="path43" /><rect
       style="opacity:0.276392;fill:#ffff00;stroke:none;stroke-width:3.70655;stroke-linecap:round;paint-order:stroke markers fill;filter:url(#filter111)"
       id="rect111"
       width="4.8675022"
       height="3.9266009"
       x="17.640013"
       y="1.698853"
       rx="5.2916665"
       ry="3.9266009"
       transform="matrix(0.7079483,0,0,0.73054429,5.5065412,1.9732787)" /><rect
       style="opacity:0.276392;fill:#00ffff;stroke:none;stroke-width:3.70655;stroke-linecap:round;paint-order:stroke markers fill;filter:url(#filter111-67)"
       id="rect111-5"
       width="4.8675022"
       height="3.9266009"
       x="17.640013"
       y="1.698853"
       rx="5.2916665"
       ry="3.9266009"
       transform="matrix(0.66200576,0,0,0.68313536,6.6441917,17.870143)" /><rect
       style="opacity:0.276392;fill:#18c6e7;fill-opacity:1;stroke:none;stroke-width:3.70655;stroke-linecap:round;paint-order:stroke markers fill;filter:url(#filter111-4)"
       id="rect111-2"
       width="4.8675022"
       height="3.9266009"
       x="17.640013"
       y="1.698853"
       rx="5.2916665"
       ry="3.9266009"
       transform="matrix(0.62047541,0,0,0.64027948,-5.4397774,11.424089)" /><path
       style="fill:#000000;stroke-width:0.265499"
       d="m 2.1178453,14.482748 c -0.1004758,-0.100476 -0.037701,-0.163909 0.1622108,-0.163909 0.1149735,0 0.3125419,-0.0631 0.4390421,-0.140231 0.3074814,-0.187472 0.6572164,-0.177051 1.2245327,0.03649 0.258989,0.09748 0.5014911,0.167042 0.5388921,0.154574 0.037401,-0.01248 0.1118309,-0.193921 0.1653976,-0.403232 0.053569,-0.209312 0.1924821,-0.52875 0.3087044,-0.709863 l 0.2113078,-0.329299 -0.143263,-0.234986 c -0.3464532,-0.568268 -0.054197,-1.11307 0.5971074,-1.11307 0.1912125,0 0.2425573,-0.02817 0.2425573,-0.133065 0,-0.07319 0.091709,-0.231241 0.2038004,-0.351233 0.1559592,-0.166957 0.2639619,-0.21817 0.4600915,-0.21817 0.3385726,0 0.6435012,0.164934 0.774976,0.419181 0.1212672,0.234504 0.140675,0.720505 0.036544,0.91508 -0.060693,0.113405 -0.020866,0.153329 0.2989763,0.299761 0.2029477,0.09291 0.4672787,0.267215 0.5874035,0.38734 l 0.2184081,0.218409 0.4002795,-0.356764 c 0.2568919,-0.228964 0.4245379,-0.332505 0.4679979,-0.289044 0.04346,0.04346 -0.08263,0.191587 -0.352007,0.41351 -0.230851,0.190185 -0.4213841,0.36244 -0.4234097,0.382789 -0.00213,0.02035 0.2413016,0.01633 0.5407287,-0.0089 0.560374,-0.04728 0.68159,-0.03099 0.611657,0.08216 -0.02222,0.03597 -0.209824,0.06539 -0.416878,0.06539 -0.5048289,0 -0.6075501,0.04564 -0.5569089,0.247416 0.055872,0.222616 -0.019513,0.253567 -1.3764754,0.565107 -1.0019809,0.230039 -1.2923576,0.268377 -2.1425237,0.282884 -0.8417916,0.01437 -1.0280503,-0.0027 -1.2930474,-0.118771 -0.536943,-0.235089 -0.792698,-0.24312 -1.1461305,-0.036 -0.3057018,0.179154 -0.5460372,0.230406 -0.6399683,0.136475 z M 7.3043919,14.056529 C 7.9225619,13.918148 8.4546064,13.782069 8.4867161,13.75413 8.5682271,13.6832 8.3058846,13.197147 8.0659769,12.97461 7.7713177,12.701285 7.4409381,12.555739 7.0154995,12.51183 6.7024735,12.47952 6.637049,12.49175 6.637049,12.58258 c 0,0.06039 -0.080934,0.205991 -0.1798516,0.323549 -0.2121156,0.252083 -0.5596857,0.339012 -0.8896484,0.222503 -0.2170614,-0.07664 -0.2411156,-0.06814 -0.4256269,0.150568 -0.2073258,0.245745 -0.4382838,0.892159 -0.3491477,0.977198 0.1970537,0.187993 1.0999423,0.116143 2.5116175,-0.199867 z m -0.6539403,-0.2345 c 0.030596,-0.09179 0.6846723,-0.266282 1.0227348,-0.272838 0.3264396,-0.0063 0.1414476,0.125953 -0.2809855,0.200927 -0.2414743,0.04286 -0.5143996,0.09831 -0.6065015,0.123235 -0.1239007,0.03353 -0.1590815,0.02018 -0.1352478,-0.05132 z M 7.683671,13.445385 c -0.016778,-0.01677 -0.2594456,-0.04187 -0.5392766,-0.05577 -0.6501041,-0.03231 -0.6634376,-0.162711 -0.015344,-0.15011 0.5566135,0.01082 0.8426863,0.06767 0.8426863,0.167471 0,0.0677 -0.2283267,0.09815 -0.2880638,0.03842 z M 6.2818586,12.871509 c 0.087806,-0.08243 0.078381,-0.120201 -0.070248,-0.281532 -0.2179216,-0.23655 -0.6667931,-0.445248 -0.9619331,-0.447243 -0.2591192,-0.0017 -0.2895799,0.09768 -0.1265233,0.412995 0.2265528,0.438107 0.8479856,0.607464 1.1587044,0.31578 z M 6.4962923,12.509987 C 6.4954862,12.336623 6.1731235,11.97458 5.9155682,11.857664 c -0.3484545,-0.15818 -0.5317181,-0.16868 -0.7010165,-0.04017 -0.1789516,0.135843 -0.1520537,0.183003 0.1053715,0.184742 0.2803222,0.0019 0.7440565,0.207651 0.924094,0.410017 0.1340082,0.150625 0.2527685,0.196632 0.2522751,0.09773 z M 7.2007598,12.171742 C 7.3399954,11.805525 7.2851782,11.510831 7.0304285,11.256083 6.7790246,11.00468 6.6141019,10.966699 6.3319903,11.095238 c -0.1656314,0.07547 -0.3271611,0.326874 -0.3271611,0.509199 0,0.04887 0.096504,0.160203 0.2144544,0.247408 0.1179507,0.08721 0.2494682,0.235399 0.2922612,0.32932 0.062865,0.137974 0.1299352,0.170767 0.3492565,0.170767 0.2267498,0 0.2827329,-0.02967 0.3399585,-0.18019 z"
       id="path30" /><path
       style="fill:#000000;stroke-width:0.258616"
       d="M 20.587185,5.8116545 C 20.439801,5.6642714 20.41682,5.5913941 20.446933,5.3668888 c 0.03773,-0.2813376 10e-4,-0.325453 -0.152627,-0.1829682 -0.07544,0.069996 -0.0841,0.06266 -0.04768,-0.040386 0.07296,-0.2064263 -0.02472,-0.2647981 -0.163885,-0.097934 -0.140291,0.1682165 -0.176099,0.1221214 -0.06557,-0.084406 0.120797,-0.22571 -0.07493,-0.2474161 -0.250661,-0.027801 -0.180374,0.2254234 -0.219589,0.1435571 -0.04834,-0.1009286 0.09366,-0.1337161 0.09642,-0.1692512 0.01709,-0.2196625 -0.06681,-0.042461 -0.149398,0.00499 -0.280958,0.161404 -0.217072,0.2580983 -0.253919,0.1955701 -0.05192,-0.088111 0.196098,-0.2753962 0.02997,-0.3613482 -0.183289,-0.09483 -0.179684,0.2245603 -0.219888,0.1439856 -0.04952,-0.099248 0.07413,-0.1058303 0.08788,-0.1805196 0.04174,-0.2266612 -0.04614,-0.04614 -0.140025,0.034677 -0.28491,0.2452551 -0.118849,0.1727408 -0.237702,0.3139592 -0.264119,0.313819 -0.137119,-7.291e-4 -0.500169,-0.2944926 -0.598171,-0.484009 -0.351252,-0.67925 0.48928,-1.3080091 1.183072,-0.8849949 0.259757,0.1583761 0.270533,0.2199211 0.08429,0.481468 -0.08167,0.1146897 -0.110537,0.2109561 -0.07066,0.2356003 0.03708,0.022921 0.10663,-0.021104 0.154549,-0.097834 0.04792,-0.076728 0.114049,-0.1395057 0.146959,-0.1395057 0.03291,0 0.01125,0.074155 -0.04814,0.1647887 -0.09216,0.1406498 -0.09393,0.1764401 -0.01213,0.2443309 0.07689,0.063814 0.117329,0.037991 0.2045,-0.130576 0.05976,-0.1155647 0.137618,-0.2101182 0.173017,-0.2101182 0.0354,0 0.0024,0.1050613 -0.07339,0.2334691 -0.182337,0.3090373 -0.04449,0.4110663 0.181699,0.1344879 0.186095,-0.2275507 0.219916,-0.171812 0.05161,0.085056 -0.09634,0.1470343 -0.09928,0.183801 -0.01867,0.23362 0.06147,0.037991 0.139021,0.019887 0.216974,-0.050655 0.129372,-0.1170812 0.172235,-0.030022 0.04692,0.095297 -0.116336,0.1163353 0.05868,0.1876871 0.192834,0.078618 0.09796,-0.079643 0.106367,-0.075198 0.06521,0.034497 -0.07225,0.192568 0.0134,0.2639483 0.178192,0.1485166 0.13192,-0.092402 0.732962,-0.1510617 0.732962,-0.071536 0,0.017509 -0.09066,0.1747878 -0.20146,0.3495066 -0.110804,0.1747188 -0.221021,0.4067237 -0.244928,0.5155673 -0.05375,0.2447178 -0.190242,0.2517418 -0.420354,0.021631 z m 0.351695,-0.157426 c 0.02377,-0.108262 0.118601,-0.2989933 0.210715,-0.4238465 0.09211,-0.1248533 0.16748,-0.2404488 0.16748,-0.2568785 0,-0.087327 -0.521794,0.072827 -0.659856,0.2025284 -0.188177,0.1767844 -0.202352,0.3122066 -0.05473,0.5229614 0.146355,0.2089511 0.284715,0.1905394 0.336394,-0.044766 z M 19.044699,4.176012 19.400521,3.6641888 19.21568,3.5430763 c -0.27519,-0.1803115 -0.721091,-0.1590283 -0.938028,0.044771 -0.255733,0.2402492 -0.245559,0.6309789 0.02343,0.8999737 0.110008,0.1100073 0.242264,0.200013 0.293902,0.200013 0.05164,0 0.254007,-0.2303206 0.449707,-0.5118237 z M 18.679267,3.9980363 c -0.02558,-0.041401 -0.125279,-0.055691 -0.226421,-0.032455 l -0.180706,0.041513 0.163797,-0.1292199 c 0.09121,-0.071956 0.142487,-0.1637034 0.115708,-0.2070347 -0.02645,-0.042797 -0.01549,-0.077814 0.02436,-0.077814 0.03985,0 0.07246,0.034385 0.07246,0.076406 0,0.042719 0.06034,0.060627 0.136849,0.040616 0.157598,-0.04121 0.187564,0.054149 0.03537,0.1125535 -0.05775,0.022159 -0.08408,0.084295 -0.0611,0.1441718 0.04609,0.120117 -0.01154,0.1425471 -0.08033,0.031261 z"
       id="path44" /><path
       style="fill:#000000;stroke-width:0.247838"
       d="m 18.63892,14.441184 c -0.197461,-0.05535 -0.426149,-0.163698 -0.508197,-0.240778 -0.138634,-0.13024 -0.149178,-0.194149 -0.149178,-0.90417 0,-0.707655 0.01088,-0.774222 0.147541,-0.902235 0.08115,-0.07602 0.233248,-0.170687 0.338001,-0.210381 l 0.19046,-0.07217 -0.170588,-0.178099 c -0.470491,-0.491204 -0.483317,-1.185223 -0.0305,-1.650244 0.277682,-0.285165 0.576337,-0.406075 1.00303,-0.406075 0.703672,0 1.214937,0.453328 1.263161,1.120019 0.0302,0.417518 -0.06739,0.67781 -0.353671,0.94326 l -0.168745,0.156469 0.316885,0.157105 0.316885,0.157105 0.03279,0.657349 c 0.04992,1.000836 0.02721,1.083397 -0.349338,1.270088 -0.410023,0.203287 -1.33866,0.254085 -1.878534,0.102758 z m 1.818035,-0.217955 c 0.196681,-0.10076 0.280358,-0.185797 0.284362,-0.288982 0.03648,-0.94017 0.03267,-0.974213 -0.104034,-0.930361 -0.934354,0.299716 -1.676417,0.298978 -2.409837,-0.0024 -0.103622,-0.04258 -0.114754,0.0034 -0.114754,0.474288 0,0.596646 0.05649,0.685433 0.535662,0.841957 0.433799,0.141702 1.451315,0.08853 1.808601,-0.09451 z m -2.147541,-0.631911 c 0,-0.198361 0.02951,-0.360656 0.06557,-0.360656 0.03607,0 0.06557,0.162295 0.06557,0.360656 0,0.19836 -0.02951,0.360655 -0.06557,0.360655 -0.03606,0 -0.06557,-0.162295 -0.06557,-0.360655 z m 2.13157,-0.663767 c 0.45572,-0.236364 0.376111,-0.483881 -0.210475,-0.654406 l -0.35683,-0.103734 0.268768,-0.230055 c 0.334736,-0.286522 0.46205,-0.526966 0.46205,-0.872629 0,-0.863635 -1.000095,-1.359411 -1.798449,-0.891544 -0.303909,0.178101 -0.562208,0.590838 -0.562208,0.898352 0,0.256646 0.275373,0.735016 0.505671,0.878438 0.251272,0.156483 0.264446,0.207106 0.0681,0.261675 -0.318274,0.08846 -0.633456,0.251346 -0.66985,0.346189 -0.05692,0.148329 0.146005,0.333328 0.484495,0.441699 0.449427,0.143888 1.469074,0.10218 1.808728,-0.07399 z m -1.918455,-0.12252 c -0.256576,-0.111519 -0.267627,-0.191366 -0.04653,-0.336232 0.224539,-0.147124 1.256386,-0.194328 1.701509,-0.07784 0.416973,0.109121 0.4727,0.275307 0.139063,0.41471 -0.308646,0.12896 -1.496837,0.128537 -1.794038,-6.45e-4 z m 1.733436,-0.103571 c 0.17154,-0.06522 0.17578,-0.07512 0.05995,-0.139944 -0.189284,-0.105931 -1.211051,-0.14411 -1.531087,-0.05721 -0.305507,0.08295 -0.361158,0.17676 -0.131148,0.221062 0.31021,0.05975 1.42605,0.0431 1.602289,-0.02391 z m -1.221811,-0.742778 c -0.342883,-0.123872 -0.604264,-0.486103 -0.609689,-0.844931 -0.0088,-0.579084 0.404121,-0.96528 1.031467,-0.964812 1.108,7.43e-4 1.396705,1.376168 0.380178,1.81111 -0.254001,0.10868 -0.498492,0.108263 -0.801956,-0.0014 z m 0.83525,-0.164403 c 0.587154,-0.30145 0.623273,-0.995987 0.0722,-1.388384 -0.376353,-0.267987 -1.015564,-0.146859 -1.269401,0.240544 -0.150531,0.229741 -0.143187,0.658788 0.01497,0.874774 0.152531,0.208297 0.512482,0.397735 0.755996,0.397871 0.100617,5.6e-5 0.292421,-0.05611 0.42623,-0.124805 z m -0.748298,-0.100465 c -0.38867,-0.169159 -0.523417,-0.561377 -0.324807,-0.945447 0.113025,-0.218563 0.353182,-0.337379 0.681938,-0.337379 0.729827,0 0.959353,0.964537 0.303578,1.275723 -0.258238,0.122541 -0.392162,0.123981 -0.660709,0.0071 z m 0.627078,-0.133292 c 0.222609,-0.115115 0.352187,-0.431431 0.267731,-0.653566 -0.147366,-0.387603 -0.736836,-0.498045 -1.021108,-0.191311 -0.451,0.486639 0.14772,1.158075 0.753377,0.844877 z m -0.655751,-0.169793 c -0.185846,-0.185845 -0.14822,-0.500613 0.08013,-0.670323 0.274679,-0.204144 0.662958,-0.05123 0.746105,0.29384 0.09526,0.395321 -0.524838,0.677875 -0.82623,0.376483 z m 0.629966,-0.155671 c 0.201855,-0.308069 -0.147746,-0.609886 -0.465376,-0.401767 -0.183987,0.120554 -0.20762,0.308319 -0.05768,0.45826 0.154465,0.154465 0.402374,0.127689 0.523055,-0.05649 z"
       id="path139" /><path
       style="fill:#000000;stroke-width:0.220422"
       d="M 5.6339995,23.162929 C 5.5748645,23.128554 5.4900014,23.013134 5.4454239,22.906445 5.3930126,22.780996 5.3176722,22.705834 5.2321874,22.6937 5.0388322,22.666254 4.8873633,22.337697 4.9651709,22.114499 5.0449218,21.88573 5.2080443,21.808264 5.519995,21.851022 c 0.2376322,0.03257 0.2740559,0.01898 0.4900477,-0.182811 0.2284867,-0.213468 0.2336193,-0.227087 0.2470081,-0.655398 0.017014,-0.54421 0.2023184,-0.976454 0.6016216,-1.403343 0.3523038,-0.376639 0.6311971,-0.521222 1.0054179,-0.521222 0.3678457,0 0.5680003,0.07606 0.8151435,0.309758 0.3957055,0.374179 0.5143447,0.897467 0.3066059,1.352366 -0.3032876,0.664124 -1.3785025,1.268604 -2.0598527,1.158036 -0.1762497,-0.0286 -0.2222841,-0.0057 -0.4136853,0.206203 -0.1999954,0.22137 -0.2143758,0.261687 -0.2014718,0.564826 0.011998,0.281901 -0.00489,0.341659 -0.123786,0.43799 -0.1516333,0.122856 -0.3866997,0.142195 -0.5530444,0.0455 z m 0.4787953,-0.159421 c 0.085345,-0.08535 0.1033275,-0.170293 0.083335,-0.393661 -0.024191,-0.270244 -0.011846,-0.300247 0.241091,-0.585842 0.3110507,-0.351213 0.3495529,-0.544631 0.1084166,-0.544631 -0.1075824,0 -0.2389645,0.07928 -0.4107709,0.24786 -0.2389912,0.23451 -0.2692248,0.247137 -0.5612463,0.234425 -0.3668443,-0.01597 -0.5173544,0.07307 -0.5173544,0.306061 0,0.184075 0.190341,0.378057 0.3709621,0.378057 0.077963,0 0.1101793,0.04167 0.1101793,0.142493 0,0.153209 0.1913319,0.324068 0.3628972,0.324068 0.057018,0 0.1526376,-0.04897 0.2124939,-0.10883 z M 7.4705681,21.74995 c 0.860824,-0.202614 1.5546078,-0.928536 1.4936585,-1.562849 -0.081147,-0.844515 -1.0470224,-1.268768 -1.7356282,-0.76236 -0.4959452,0.36472 -0.8964553,1.126333 -0.8629327,1.64096 0.013999,0.214992 0.04004,0.270199 0.1340201,0.284198 0.3597007,0.05358 0.3772091,0.06593 0.3421248,0.241355 -0.026486,0.132428 -0.010441,0.174783 0.074504,0.196646 0.1763573,0.04539 0.2099368,0.04309 0.5542567,-0.03795 z M 6.5877364,20.881592 c 7.719e-4,-0.25533 0.2321731,-0.736417 0.4931917,-1.025334 0.3756091,-0.415754 0.9253459,-0.522677 1.2662612,-0.246287 0.201815,0.163618 0.09962,0.196756 -0.1630566,0.05287 -0.3436706,-0.188248 -0.6014357,-0.119731 -0.9822584,0.26109 -0.2994559,0.299456 -0.4980674,0.702921 -0.4980674,1.011786 0,0.07448 -0.026245,0.13541 -0.058317,0.13541 -0.03208,0 -0.058068,-0.08529 -0.057748,-0.18954 z"
       id="path137" /><path
       style="fill:#000000;stroke-width:0.215376"
       d="m 19.026596,22.716051 c -0.0301,-0.03917 -0.149031,-0.229093 -0.264284,-0.422034 -0.173214,-0.289976 -0.283503,-0.396896 -0.636062,-0.616636 -0.234582,-0.146209 -0.426513,-0.287837 -0.426513,-0.314731 0,-0.04462 0.239909,-0.104803 0.812035,-0.203684 0.206157,-0.03563 0.21376,-0.04525 0.215554,-0.272775 10e-4,-0.129714 0.05352,-0.376882 0.116671,-0.549262 0.06314,-0.172379 0.128064,-0.353156 0.144262,-0.401724 0.01981,-0.05938 -0.06505,-0.152722 -0.259022,-0.284925 -0.158662,-0.10814 -0.288525,-0.217104 -0.288585,-0.242143 -2.8e-4,-0.116448 0.499327,-0.265435 0.894145,-0.266641 0.299303,-8.46e-4 0.460727,-0.0308 0.598342,-0.110806 0.341296,-0.198402 0.830887,-0.305576 1.256735,-0.275107 0.21615,0.01547 0.417344,0.05246 0.447097,0.08222 0.02975,0.02976 0.06976,0.221918 0.08892,0.427033 0.04065,0.435305 -0.04565,0.874107 -0.243074,1.235984 -0.103123,0.189021 -0.136793,0.340707 -0.139143,0.626835 -0.003,0.372166 -0.141164,0.862684 -0.253333,0.899756 -0.03135,0.01036 -0.145463,-0.110976 -0.253602,-0.269633 -0.132204,-0.19396 -0.225549,-0.278817 -0.284925,-0.259013 -0.04857,0.0162 -0.229345,0.08111 -0.401725,0.144263 -0.17238,0.06314 -0.419123,0.115647 -0.54832,0.11667 -0.2298,0.0018 -0.235699,0.0069 -0.271563,0.231118 -0.0738,0.461528 -0.159418,0.796472 -0.203591,0.796472 -0.02491,0 -0.06991,-0.03205 -0.10002,-0.07123 z m 0.155378,-0.559325 c 0.03735,-0.221438 0.05421,-0.416313 0.03747,-0.433053 -0.01674,-0.01674 -0.0978,0.102495 -0.180131,0.264967 -0.140306,0.276881 -0.144037,0.304038 -0.0595,0.433054 0.0496,0.07571 0.100104,0.137649 0.11222,0.137649 0.01212,0 0.05259,-0.181178 0.08994,-0.402617 z m -0.224757,-0.2616 c 0.152125,-0.354894 0.119208,-0.406576 -0.108994,-0.171132 -0.169895,0.175289 -0.18144,0.207342 -0.113724,0.315772 0.04145,0.06638 0.08293,0.120681 0.09218,0.120681 0.0092,0 0.06799,-0.119395 0.130541,-0.265321 z M 18.782451,21.61909 c 0.222488,-0.229548 0.179471,-0.247219 -0.196717,-0.08081 -0.247791,0.109609 -0.260263,0.124642 -0.163953,0.197635 0.142706,0.108157 0.14257,0.1082 0.36067,-0.116821 z m 2.395427,-0.01424 c 0.03499,-0.117531 0.05525,-0.324047 0.04502,-0.458925 l -0.01859,-0.245233 -0.241575,0.246767 -0.241576,0.246768 0.150953,0.212158 c 0.08303,0.116687 0.171472,0.21216 0.196549,0.21216 0.02508,0 0.07422,-0.09616 0.109215,-0.213695 z m -0.840369,-0.158309 c 0.198448,-0.09717 0.462592,-0.302498 0.678788,-0.527643 l 0.353921,-0.368573 -0.253907,-0.129317 c -0.374634,-0.190804 -0.781069,-0.573507 -0.976125,-0.919126 -0.09456,-0.167555 -0.204044,-0.304646 -0.243293,-0.304646 -0.122148,0 -0.694507,0.646086 -0.857761,0.968253 -0.09295,0.183428 -0.167666,0.44144 -0.185824,0.641691 -0.03027,0.333761 -0.0295,0.335801 0.220065,0.59292 l 0.250435,0.258008 0.344417,-0.02625 c 0.217504,-0.01657 0.464128,-0.08487 0.669284,-0.185319 z m 0.320172,-0.929745 c -0.391397,-0.248218 -0.892793,-0.876265 -0.835876,-1.047017 0.0113,-0.0339 0.104414,0.06905 0.206918,0.228795 0.204385,0.318505 0.489433,0.597037 0.819433,0.800698 0.117531,0.07254 0.213693,0.142614 0.213693,0.155728 0,0.06667 -0.176012,0.0065 -0.404168,-0.138204 z m -2.152594,0.927514 c 0.158783,-0.08046 0.275,-0.15999 0.258259,-0.176731 -0.01674,-0.01674 -0.216868,10e-4 -0.444727,0.03945 l -0.41429,0.06988 0.131957,0.106852 c 0.162757,0.131793 0.124542,0.135008 0.468801,-0.03945 z m 3.027339,-1.364018 c 0.113213,-0.321768 0.112353,-1.006739 -0.0014,-1.120499 -0.187266,-0.187265 -1.335019,-0.06247 -1.418161,0.154191 -0.03928,0.102353 0.25025,0.562907 0.50417,0.801989 0.268659,0.252961 0.629734,0.48285 0.729745,0.464617 0.04701,-0.0086 0.130556,-0.143706 0.185652,-0.300298 z m -1.018541,-0.623298 c -0.0607,-0.15818 0.0041,-0.288253 0.14364,-0.288253 0.179753,0 0.28158,0.158173 0.180349,0.280149 -0.09355,0.112723 -0.282034,0.117438 -0.323989,0.0081 z m 0.214602,-0.117299 c 0,-0.02977 -0.02757,-0.06333 -0.06126,-0.07455 -0.03369,-0.01123 -0.06126,0.02232 -0.06126,0.07455 0,0.05224 0.02757,0.08579 0.06126,0.07455 0.03369,-0.01123 0.06126,-0.04478 0.06126,-0.07455 z m -1.387386,-0.07558 c -0.258797,-0.01962 -0.67262,0.07613 -0.67262,0.155632 0,0.02584 0.09616,0.111992 0.213693,0.191442 l 0.213695,0.144455 0.245232,-0.236469 0.245232,-0.236468 z"
       id="path135" /></g></svg>
