<?xml version="1.0" encoding="UTF-8" standalone="no"?>
<!-- Created with Inkscape (http://www.inkscape.org/) -->

<svg
   width="100"
   height="70"
   viewBox="0 0 26.458333 18.520843"
   version="1.1"
   id="svg1"
   xml:space="preserve"
   inkscape:version="1.3.2 (091e20e, 2023-11-25, custom)"
   sodipodi:docname="toy-2.svg"
   inkscape:export-filename="ninja-cat.png"
   inkscape:export-xdpi="96"
   inkscape:export-ydpi="96"
   xmlns:inkscape="http://www.inkscape.org/namespaces/inkscape"
   xmlns:sodipodi="http://sodipodi.sourceforge.net/DTD/sodipodi-0.dtd"
   xmlns="http://www.w3.org/2000/svg"
   xmlns:svg="http://www.w3.org/2000/svg"><sodipodi:namedview
     id="namedview1"
     pagecolor="#ffffff"
     bordercolor="#000000"
     borderopacity="0.25"
     inkscape:showpageshadow="2"
     inkscape:pageopacity="0.0"
     inkscape:pagecheckerboard="0"
     inkscape:deskcolor="#d1d1d1"
     inkscape:document-units="mm"
     inkscape:zoom="2.9833399"
     inkscape:cx="24.46922"
     inkscape:cy="22.793246"
     inkscape:window-width="1440"
     inkscape:window-height="830"
     inkscape:window-x="-6"
     inkscape:window-y="-6"
     inkscape:window-maximized="1"
     inkscape:current-layer="layer1" /><defs
     id="defs1" /><g
     inkscape:label="Layer 1"
     inkscape:groupmode="layer"
     id="layer1"><path
       style="fill:#000000;stroke-width:0.183053"
       d="m 15.968372,16.980745 c -1.651976,-0.220966 -3.17989,-0.978818 -4.405799,-2.185294 l -0.555403,-0.5466 -0.219519,0.07055 c -0.56949,0.183024 -1.3310676,0.223284 -1.9467246,0.102912 -1.294309,-0.25306 -2.3035711,-1.000675 -2.9261041,-2.167519 -0.467105,-0.875516 -1.1394809,-1.390269 -2.0498759,-1.569328 -0.455193,-0.08953 -0.838444,-0.05374 -1.350063,0.126082 -0.148676,0.05226 -0.274826,0.08984 -0.280334,0.08352 -0.04291,-0.04926 -0.602239,-1.2078727 -0.602239,-1.2475047 0,-0.07458 0.400875,-0.234247 0.871787,-0.347225 0.578049,-0.138682 1.535403,-0.104096 2.124493,0.07675 1.0996979,0.337602 2.0070829,1.1155777 2.576161,2.2087567 0.239079,0.459262 0.751878,0.958257 1.208129,1.175606 0.199784,0.09517 0.497627,0.198992 0.661873,0.230708 0.293593,0.05669 0.9974026,0.05024 1.0573346,-0.0097 0.01682,-0.01682 -0.04459,-0.179932 -0.1364686,-0.362469 -0.790502,-1.570485 -0.978509,-3.6389127 -0.492849,-5.4222517 0.8293936,-3.045522 3.4771956,-5.323881 6.6108996,-5.688493 0.678635,-0.07896 1.862391,-0.03229 2.477745,0.0977 1.075526,0.227185 2.224127,0.74765 3.098038,1.403815 1.234548,0.926944 2.254632,2.326883 2.728694,3.744795 0.330794,0.989401 0.486687,2.366168 0.368706,3.2562207 -0.09649,0.727938 -0.102299,0.759617 -0.225955,1.232578 -0.990716,3.789309 -4.689283,6.25848 -8.592526,5.736387 z m -0.229896,-2.452256 -1.41629,-1.416289 -0.702535,0.701282 c -0.386395,0.385704 -0.702535,0.713543 -0.702535,0.728529 0,0.05705 0.770238,0.531969 1.210816,0.746573 0.841603,0.40994 1.770648,0.643667 2.591043,0.651849 l 0.43579,0.0043 z m 3.694552,0.983912 c 0.34412,-0.128752 0.748984,-0.334112 0.748984,-0.379909 0,-0.01965 -0.882564,-0.918096 -1.961255,-1.996539 l -1.961255,-1.960807 -0.581713,0.580197 -0.581713,0.580198 1.726175,1.726675 1.726176,1.726675 0.308945,-0.08835 c 0.16992,-0.04859 0.428965,-0.133255 0.575656,-0.18814 z m 2.326677,-1.53165 c 0.281077,-0.281076 0.504219,-0.541275 0.495872,-0.578219 -0.01237,-0.05473 -4.029748,-4.1414587 -4.071184,-4.1414587 -0.02228,0 -1.150503,1.1041347 -1.150503,1.1259387 0,0.05289 4.09952,4.103506 4.153663,4.104108 0.03361,3.66e-4 0.291076,-0.229292 0.572152,-0.510369 z m -4.919452,-4.9403227 4.72209,-4.724881 -0.193731,-0.168406 c -0.106552,-0.09262 -0.35573,-0.278111 -0.55373,-0.412193 l -0.359999,-0.243787 -4.598539,4.598539 -4.598539,4.5985407 0.159604,0.23583 c 0.202509,0.299226 0.635992,0.841239 0.672793,0.841239 0.01538,0 2.152902,-2.126196 4.750051,-4.7248817 z m 6.241444,3.0902797 c 0.165066,-0.327368 0.442168,-1.133591 0.442168,-1.286476 0,-0.07538 -0.498646,-0.604971 -1.707756,-1.8137217 l -1.707756,-1.707248 -0.580195,0.581711 -0.580196,0.581712 1.960807,1.9612557 c 1.078444,1.07869 1.97694,1.961255 1.996658,1.961255 0.01972,0 0.09904,-0.125319 0.17627,-0.278488 z M 18.99237,2.8550303 c -0.22906,-0.07371 -0.568092,-0.160016 -0.753404,-0.191793 l -0.33693,-0.05778 -3.768769,3.768537 -3.768769,3.7685377 0.04073,0.21801 c 0.05243,0.280651 0.119453,0.539308 0.246369,0.95081 l 0.102063,0.330921 4.327592,-4.3266147 4.327592,-4.326614 z m 4.650826,5.297998 c -0.134399,-0.857083 -0.549758,-1.889036 -1.066124,-2.648767 -0.125508,-0.18466 -0.237025,-0.345595 -0.247816,-0.357633 -0.0279,-0.03112 -1.423643,1.369387 -1.408802,1.413608 0.0067,0.0201 0.633413,0.658839 1.392595,1.419419 l 1.38033,1.382872 0.01446,-0.352544 c 0.008,-0.1939 -0.02114,-0.57953 -0.06464,-0.856955 z m -7.308838,-5.564847 c -0.04466,-0.04467 -0.974639,0.155913 -1.431504,0.308749 -2.402681,0.803774 -4.201571,2.976436 -4.527429,5.468139 l -0.03167,0.242163 3.004094,-3.000732 c 1.652252,-1.650403 2.99618,-3.008647 2.986509,-3.018319 z"
       id="path142" /></g></svg>
