<?xml version="1.0" encoding="UTF-8" standalone="no"?>
<!-- Created with Inkscape (http://www.inkscape.org/) -->

<svg
   width="100"
   height="70"
   viewBox="0 0 26.458333 18.520843"
   version="1.1"
   id="svg1"
   xml:space="preserve"
   inkscape:version="1.3.2 (091e20e, 2023-11-25, custom)"
   sodipodi:docname="toy-1.svg"
   inkscape:export-filename="ninja-cat.png"
   inkscape:export-xdpi="96"
   inkscape:export-ydpi="96"
   xmlns:inkscape="http://www.inkscape.org/namespaces/inkscape"
   xmlns:sodipodi="http://sodipodi.sourceforge.net/DTD/sodipodi-0.dtd"
   xmlns="http://www.w3.org/2000/svg"
   xmlns:svg="http://www.w3.org/2000/svg"><sodipodi:namedview
     id="namedview1"
     pagecolor="#ffffff"
     bordercolor="#000000"
     borderopacity="0.25"
     inkscape:showpageshadow="2"
     inkscape:pageopacity="0.0"
     inkscape:pagecheckerboard="0"
     inkscape:deskcolor="#d1d1d1"
     inkscape:document-units="mm"
     inkscape:zoom="1.4916699"
     inkscape:cx="22.793246"
     inkscape:cy="14.078182"
     inkscape:window-width="1440"
     inkscape:window-height="830"
     inkscape:window-x="-6"
     inkscape:window-y="-6"
     inkscape:window-maximized="1"
     inkscape:current-layer="layer1" /><defs
     id="defs1" /><g
     inkscape:label="Layer 1"
     inkscape:groupmode="layer"
     id="layer1"><path
       style="fill:#000000;stroke-width:0.121648"
       d="M 3.307393,16.583773 C 3.1252162,16.510163 3.047739,16.258908 3.1583213,16.100336 3.2093893,16.027106 5.0896853,14.1607 5.8462905,13.432226 6.1576291,13.13246 6.1597485,13.129384 6.0875148,13.081833 6.0474341,13.05545 5.905752,12.923327 5.7726654,12.788224 5.0645246,12.069356 4.9156197,10.994246 5.3958029,10.067233 5.553526,9.762742 5.9670444,9.3263856 6.2613614,9.1538711 6.7660458,8.8580491 7.4478813,8.7568299 8.0151218,8.8935234 8.247029,8.9494074 8.6594533,9.1510096 8.8853237,9.318895 c 0.2474756,0.1839438 0.5085841,0.4967769 0.6473339,0.775568 0.058127,0.11679 0.10969,0.212345 0.1145946,0.212345 0.00489,0 0.167232,-0.09549 0.3607258,-0.212196 0.69239,-0.4176238 1.672246,-0.8694266 2.250796,-1.037823 0.384549,-0.1119287 0.726462,-0.1717156 1.086287,-0.1899471 l 0.346004,-0.017529 V 8.7428034 c 0,-0.1794395 0.06508,-0.422207 0.128598,-0.4796878 0.05679,-0.051401 0.08492,-0.049511 0.488858,0.032839 0.235728,0.048057 0.462897,0.1088248 0.50482,0.1350423 0.08105,0.05069 0.08002,0.025364 0.01716,0.4194884 l -0.01926,0.1207989 0.236522,0.059932 c 1.433469,0.3632456 2.932663,1.5140348 3.929326,3.0161688 0.523851,0.789531 0.987896,1.84434 1.172277,2.664677 0.03236,0.143967 0.06722,0.261758 0.07747,0.261758 0.05051,0 0.685755,-0.600818 0.887204,-0.839127 0.404361,-0.478346 0.634904,-0.879013 0.770828,-1.339644 0.0736,-0.249434 0.0818,-0.324067 0.06825,-0.621435 C 21.918688,11.418647 21.530151,10.79625 20.597837,10.002629 19.256218,8.8605899 18.5369,7.7291597 18.304998,6.3961787 c -0.06977,-0.401062 -0.04396,-1.2981621 0.04908,-1.705873 0.07462,-0.3269465 0.155807,-0.5933204 0.25999,-0.8529366 0.297341,-0.7409416 0.961185,-1.7159266 1.270185,-1.8655109 0.145953,-0.070652 0.436927,-0.088645 0.576354,-0.035631 0.128556,0.048876 0.317239,0.2335217 0.380158,0.3720216 0.124883,0.2748967 0.05968,0.5332351 -0.219404,0.8693058 -0.228814,0.2755355 -0.398485,0.5363837 -0.565272,0.8690297 -0.527112,1.0513001 -0.541251,2.1189168 -0.04135,3.1220683 0.296646,0.5952723 0.718053,1.102715 1.413733,1.7023646 0.838225,0.7225149 1.241833,1.2037738 1.563906,1.8647808 0.219499,0.450492 0.320602,0.810057 0.349988,1.244702 0.05143,0.760699 -0.122589,1.468106 -0.540373,2.196685 -0.427118,0.744863 -1.289949,1.635489 -2.167159,2.236973 l -0.293379,0.201164 -8.483047,-0.002 c -4.665665,-0.0011 -8.5136238,-0.01438 -8.5510093,-0.02949 z m 6.824423,-0.615834 c 0.07246,-0.05699 0.0849,-0.08909 0.07675,-0.197945 -0.01741,-0.232766 -0.02915,-0.235995 -1.2649831,-0.347631 -0.6018785,-0.05437 -1.1218584,-0.109559 -1.1555061,-0.122646 -0.048767,-0.01896 0.1307899,-0.156661 0.8851226,-0.678767 0.520465,-0.360236 0.9639438,-0.678056 0.9855094,-0.706267 0.059762,-0.07819 0.048735,-0.210129 -0.025453,-0.304441 -0.1425648,-0.181243 -0.1731496,-0.165735 -1.5521227,0.787006 -0.6940119,0.479497 -1.2871866,0.901133 -1.3181659,0.936968 -0.081363,0.09412 -0.072169,0.257221 0.019345,0.343195 0.070096,0.06586 0.1643582,0.07934 1.2794044,0.183049 0.6620533,0.06158 1.3196042,0.124321 1.461224,0.139426 0.4359582,0.04649 0.5143784,0.04239 0.6088714,-0.03195 z M 6.1987124,15.358634 C 6.629424,15.239015 6.7693823,14.707117 6.4533135,14.391048 6.1789063,14.116641 5.7706009,14.15792 5.5474043,14.482638 c -0.1980058,0.288065 -0.068128,0.690127 0.2741189,0.848582 0.1486078,0.06881 0.2116704,0.07339 0.3771892,0.02741 z"
       id="path140" /><path
       style="fill:#000000;stroke-width:0.121648"
       d="M 14.366979,8.2607218 C 13.860861,8.1540986 13.852195,8.1449816 13.925519,7.7962791 l 0.044,-0.2092106 -0.340385,-0.00168 c -0.272063,-0.00137 -0.375919,-0.015853 -0.517409,-0.07219 -0.364524,-0.1451358 -0.67141,-0.4575871 -0.811301,-0.8260142 -0.10179,-0.2680747 -0.101611,-0.725746 3.72e-4,-0.9829859 0.140479,-0.3543242 0.453741,-0.668062 0.810929,-0.8121588 0.143093,-0.057728 0.241802,-0.071562 0.51498,-0.07219 0.314296,-7.177e-4 0.353184,0.00643 0.555487,0.1022687 0.238018,0.1127474 0.525959,0.3631573 0.621426,0.5404292 0.03345,0.062098 0.0723,0.1129061 0.08636,0.1129061 0.01406,0 0.08129,-0.03688 0.149407,-0.081961 0.569686,-0.3769998 1.309546,-0.2900991 1.786391,0.2098227 0.210357,0.2205375 0.322326,0.442704 0.373682,0.7414533 0.101862,0.5925507 -0.23682,1.2267786 -0.79446,1.4877301 C 16.231206,8.0138257 16.134927,8.0366493 15.917507,8.048061 15.581129,8.065717 15.360344,8.018111 15.127077,7.8776475 14.9224,7.754398 14.95264,7.730976 14.880568,8.0685709 c -0.01875,0.087788 -0.0496,0.1783117 -0.06856,0.2011638 -0.04246,0.051156 -0.17196,0.04854 -0.445023,-0.00899 z m 1.641235,-1.3635395 c 0.231833,-0.1646206 0.09678,-0.5492852 -0.192852,-0.5492852 -0.263809,0 -0.419681,0.3551645 -0.230865,0.5260415 0.135418,0.1225509 0.273218,0.1301103 0.423717,0.023244 z M 13.815715,6.4413649 C 13.923281,6.3411475 13.956682,6.2286432 13.915716,6.1045 c -0.10728,-0.3250743 -0.61088,-0.2438249 -0.61088,0.098559 0,0.2530921 0.329857,0.4069572 0.510883,0.238306 z"
       id="path141" /></g></svg>
