<?xml version="1.0" encoding="UTF-8" standalone="no"?>
<!-- Created with Inkscape (http://www.inkscape.org/) -->

<svg
   width="100"
   height="70"
   viewBox="0 0 26.458333 18.520843"
   version="1.1"
   id="svg1"
   xml:space="preserve"
   inkscape:version="1.3.2 (091e20e, 2023-11-25, custom)"
   sodipodi:docname="wool-ball.svg"
   inkscape:export-filename="ninja-cat.png"
   inkscape:export-xdpi="96"
   inkscape:export-ydpi="96"
   xmlns:inkscape="http://www.inkscape.org/namespaces/inkscape"
   xmlns:sodipodi="http://sodipodi.sourceforge.net/DTD/sodipodi-0.dtd"
   xmlns="http://www.w3.org/2000/svg"
   xmlns:svg="http://www.w3.org/2000/svg"><sodipodi:namedview
     id="namedview1"
     pagecolor="#ffffff"
     bordercolor="#000000"
     borderopacity="0.25"
     inkscape:showpageshadow="2"
     inkscape:pageopacity="0.0"
     inkscape:pagecheckerboard="0"
     inkscape:deskcolor="#d1d1d1"
     inkscape:document-units="mm"
     inkscape:zoom="2.9833399"
     inkscape:cx="78.770778"
     inkscape:cy="45.586493"
     inkscape:window-width="1440"
     inkscape:window-height="830"
     inkscape:window-x="-6"
     inkscape:window-y="-6"
     inkscape:window-maximized="1"
     inkscape:current-layer="layer1" /><defs
     id="defs1"><filter
       inkscape:collect="always"
       style="color-interpolation-filters:sRGB"
       id="filter111"
       x="-0.46710383"
       y="-0.57903233"
       width="1.9342077"
       height="2.1580647"><feGaussianBlur
         inkscape:collect="always"
         stdDeviation="0.94734535"
         id="feGaussianBlur111" /></filter><filter
       inkscape:collect="always"
       style="color-interpolation-filters:sRGB"
       id="filter111-6"
       x="-1.0840184"
       y="-1.3437735"
       width="3.1680369"
       height="3.6875469"><feGaussianBlur
         inkscape:collect="always"
         stdDeviation="2.1985258"
         id="feGaussianBlur111-5" /></filter><filter
       inkscape:collect="always"
       style="color-interpolation-filters:sRGB"
       id="filter111-4"
       x="-0.46710383"
       y="-0.57903233"
       width="1.9342077"
       height="2.1580647"><feGaussianBlur
         inkscape:collect="always"
         stdDeviation="0.94734535"
         id="feGaussianBlur111-9" /></filter><filter
       inkscape:collect="always"
       style="color-interpolation-filters:sRGB"
       id="filter111-67"
       x="-0.46710383"
       y="-0.57903233"
       width="1.9342077"
       height="2.1580647"><feGaussianBlur
         inkscape:collect="always"
         stdDeviation="0.94734535"
         id="feGaussianBlur111-2" /></filter><filter
       inkscape:collect="always"
       style="color-interpolation-filters:sRGB"
       id="filter111-2"
       x="-0.46710383"
       y="-0.57903233"
       width="1.9342077"
       height="2.1580647"><feGaussianBlur
         inkscape:collect="always"
         stdDeviation="0.94734535"
         id="feGaussianBlur111-8" /></filter></defs><g
     inkscape:label="Layer 1"
     inkscape:groupmode="layer"
     id="layer1"><rect
       style="opacity:0.276392;fill:#ff9955;stroke:none;stroke-width:3.70655;stroke-linecap:round;paint-order:stroke markers fill;filter:url(#filter111)"
       id="rect140"
       width="4.8675022"
       height="3.9266009"
       x="17.640013"
       y="1.698853"
       rx="5.2916665"
       ry="3.9266009"
       transform="matrix(0.7079483,0,0,0.73054429,29.443663,16.781562)" /><rect
       style="opacity:1;fill:#ff002c;fill-opacity:1;stroke:none;stroke-width:3.70655;stroke-linecap:round;paint-order:stroke markers fill;filter:url(#filter111-6)"
       id="rect111-7"
       width="4.8675022"
       height="3.9266009"
       x="4.2322531"
       y="2.5151908"
       rx="5.2916665"
       ry="3.9266009"
       transform="matrix(1.3506406,0,0,1.3506406,4.22579,3.2115845)" /><path
       style="fill:#000000;stroke-width:0.799228"
       d="m 21.582181,14.309434 c -0.748215,-0.275112 -1.057316,-0.770372 -1.057316,-1.694089 0,-2.006678 -0.967587,-2.341213 -2.356727,-0.814819 -0.893211,0.981457 -2.100902,1.601613 -3.118992,1.601613 -1.002744,0 -2.409668,-0.609122 -3.209096,-1.389366 -0.753802,-0.735705 -0.755575,-0.736181 -1.14376,-0.307235 -0.213836,0.236285 -0.7641995,0.530696 -1.2230374,0.654247 -0.7379353,0.198707 -0.9682411,0.159074 -1.9951635,-0.343349 -0.91395,-0.447158 -1.363044,-0.545206 -2.1110425,-0.460896 -1.2573479,0.141724 -1.4421672,0.359033 -0.9841262,1.157127 0.5834077,1.016533 0.1765694,1.323861 -1.7525433,1.323861 -0.8580418,0 -1.5602923,-0.07137 -1.5605541,-0.158606 -2.617e-4,-0.08723 0.6482852,-0.127686 1.4412154,-0.0899 1.784438,0.08501 2.1538528,-0.195092 1.5787754,-1.19711 C 3.6053463,11.746774 3.8666747,11.472979 5.2871073,11.336494 6.4614551,11.223661 6.476487,11.205792 6.0396695,10.441661 5.1992405,8.9714819 5.9914687,6.6635421 7.6184583,5.8423471 8.6821839,5.3054447 9.488973,5.2576358 10.627188,5.6640549 c 0.751602,0.2683772 0.80364,0.2553022 1.374506,-0.3453529 0.857126,-0.9018609 1.591449,-1.2209224 2.809969,-1.2209224 1.040901,0 2.729824,0.5163183 2.486115,0.7600288 -0.06602,0.066053 -0.318557,0.013852 -0.56113,-0.1159508 -0.46226,-0.2473903 -0.559334,-0.1008731 -0.25323,0.3821993 0.143456,0.226396 0.278099,0.2343728 0.644666,0.038199 0.359117,-0.1921899 0.535123,-0.1883942 0.78247,0.016814 0.964997,0.8008772 1.626214,3.518726 1.172628,4.819902 -0.224393,0.6436821 -0.217094,0.6540831 0.458806,0.6540831 0.947246,0 1.194343,0.330084 1.194343,1.595489 0,1.279912 0.413017,1.787915 1.453631,1.787915 0.723094,0 1.718311,-0.781129 1.718311,-1.348673 0,-0.170826 0.246371,-0.603357 0.547449,-0.961193 0.549516,-0.653064 0.932788,-0.833505 0.932788,-0.439151 0,0.116298 -0.147976,0.211465 -0.328836,0.211465 -0.194945,0 -0.536642,0.469906 -0.83928,1.154216 -0.637174,1.440768 -1.592735,2.040657 -2.638213,1.65624 z M 15.852708,12.996036 C 16.29584,12.715497 16.011159,9.7656979 15.351246,7.7998311 14.787991,6.1219261 13.901837,4.5207074 13.536501,4.5207074 c -0.620401,0 -2.315989,1.8544737 -2.315989,2.5330187 0,0.332669 1.071982,0.245919 1.972328,-0.159611 L 14.002123,6.5296001 13.46354,5.7366158 c -0.296218,-0.4361418 -0.450302,-0.792986 -0.342406,-0.792986 0.312427,0 1.282323,1.7997043 1.741992,3.2323783 0.276183,0.8607828 0.429498,1.9523299 0.444475,3.1643699 0.01248,1.017663 0.07352,1.84884 0.135382,1.84706 0.06185,-0.0018 0.24626,-0.08791 0.409725,-0.191402 z m -0.825869,-1.154948 v -1.138127 l -0.792987,0.282996 c -0.436138,0.155642 -1.198212,0.28717 -1.693493,0.292275 -0.849334,0.0087 -0.885386,0.03354 -0.634388,0.436042 0.339919,0.545104 1.784398,1.264556 2.539341,1.264773 0.562379,1.62e-4 0.581527,-0.0373 0.581527,-1.137959 z m 2.039386,0.606257 c 0.06761,-0.176224 0.01023,-1.091275 -0.12753,-2.033449 -0.445163,-3.0444739 -1.734049,-6.0996922 -2.574717,-6.103207 -0.280778,-0.0012 -0.210643,0.2528291 0.373607,1.3531057 0.879505,1.6563124 1.558027,4.2122652 1.558027,5.8690073 0,0.968007 0.07002,1.23495 0.323822,1.23495 0.178109,0 0.379162,-0.144187 0.446785,-0.320407 z M 9.1058795,12.059187 c 0,-0.451042 -0.5139372,-1.374775 -0.7006679,-1.259365 -0.1300957,0.08041 -0.5728316,0.204755 -0.9838523,0.276332 l -0.7473017,0.130147 0.7401261,0.462745 c 0.6256755,0.391195 1.6916958,0.637045 1.6916958,0.39015 z m 0.7480054,-0.150046 c 0.2060021,-0.333315 -0.3276998,-1.467473 -0.6905494,-1.467473 -0.2174862,0 -0.2662955,0.11389 -0.1586239,0.37006 0.08555,0.203532 0.2019818,0.584164 0.2587328,0.84585 0.1103369,0.508751 0.3645445,0.617059 0.5904307,0.251564 z m 7.8714311,-1.51823 C 17.508575,8.9159479 16.439996,5.5200231 15.961339,4.7850393 15.790912,4.5233559 15.504452,4.3092487 15.324752,4.3092487 c -0.274256,0 -0.260742,0.093387 0.08413,0.5815236 0.653689,0.9252588 1.484639,3.4791708 1.76668,5.4299017 0.188747,1.305417 0.325894,1.741211 0.501988,1.59507 0.173778,-0.144221 0.187283,-0.575392 0.04778,-1.524832 z m -7.437498,0.169093 C 10.107849,10.129263 9.8709328,9.8322529 9.7613437,9.8999829 c -0.1168011,0.07217 -0.052984,0.4673841 0.1541691,0.9549271 0.1943802,0.45748 0.4312952,0.754488 0.5264832,0.660021 0.09519,-0.09446 0.02582,-0.524185 -0.154169,-0.954927 z m 8.298492,0.04026 c 0.438506,-1.4428161 0.490926,-1.8982281 0.20321,-1.7653981 -0.150459,0.06946 -0.445457,0.186436 -0.655565,0.259949 -0.223792,0.07831 -0.33328,0.260691 -0.264331,0.440358 0.06473,0.168692 0.117686,0.6319691 0.117686,1.0295211 0,0.914802 0.325902,0.934155 0.598997,0.03556 z M 10.780416,10.160031 C 10.66098,9.7274509 10.471689,9.4301129 10.359773,9.4992789 c -0.111914,0.06917 -0.157204,0.200629 -0.100648,0.292139 0.05659,0.09152 0.203508,0.4311891 0.326556,0.7548371 0.316048,0.831256 0.454875,0.555915 0.194735,-0.386224 z m -1.8958347,0.07309 C 9.9004962,9.7120059 10.509413,9.0021039 10.696232,8.1210261 l 0.155781,-0.734664 -0.9523279,0.979873 C 8.8265049,9.4704599 8.0776899,9.9147659 6.9255776,10.130903 c -0.6629757,0.124375 -0.7496518,0.198461 -0.5349069,0.457214 0.3089727,0.372292 1.3707014,0.221162 2.4939141,-0.354996 z m 5.8617127,0.156787 c 0.541501,-0.5415061 0.255938,-0.6206291 -0.863415,-0.239226 -0.599782,0.204367 -1.338117,0.297384 -1.833296,0.230969 -0.648382,-0.08698 -0.829071,-0.04142 -0.829071,0.20898 0,0.476824 3.020174,0.304887 3.525782,-0.200723 z M 13.719676,9.9048139 c 0.836905,-0.248533 1.095696,-0.423342 1.095696,-0.740119 0,-0.228103 -0.02382,-0.4133 -0.05283,-0.411549 -0.02907,0.0018 -0.433493,0.140304 -0.898717,0.307915 -0.465215,0.1676 -1.297851,0.308904 -1.850294,0.314009 -0.725836,0.0067 -1.004447,0.09318 -1.004447,0.311768 0,0.276097 0.404417,0.4382631 1.283258,0.5145661 0.182424,0.01576 0.824739,-0.117632 1.427375,-0.2965891 z M 8.4072811,9.2654719 c 0.9442567,-0.553374 2.8765199,-2.7795648 2.6835639,-3.0917788 -0.197675,-0.319846 -0.68661,-0.17614 -0.818906,0.24069 -0.217344,0.684776 -2.1981122,2.3092198 -3.2875813,2.6961638 -0.5613141,0.199363 -0.9740922,0.437685 -0.9172829,0.529606 0.2135543,0.345539 1.4486733,0.147791 2.3402063,-0.374681 z M 7.4670432,8.6436289 c 0.2035326,-0.0827 0.3700598,-0.1915688 0.3700598,-0.2419098 0,-0.193744 -0.8602345,-1.766384 -0.9662203,-1.766384 -0.1698902,0 -0.9270098,1.748249 -0.9322993,2.1527318 -0.00484,0.357326 0.384109,0.320587 1.5284598,-0.144428 z m 6.5652208,0.08745 c 0.319651,-0.145642 0.571647,-0.4319348 0.571647,-0.6494428 0,-0.466463 0.02064,-0.464355 -0.875883,-0.08978 -0.393835,0.164551 -1.185057,0.3385 -1.758262,0.386543 -1.056815,0.08857 -1.51136,0.4561108 -0.813825,0.6580358 0.572792,0.165818 2.227859,-0.0099 2.876323,-0.305345 z m 4.533529,-0.09262 c 0.265545,-0.1859968 0.410629,-0.4545698 0.342064,-0.6332398 -0.102363,-0.26676 -0.204893,-0.259554 -0.731262,0.05137 -0.62738,0.370602 -0.717844,0.5172488 -0.471235,0.7638658 0.206736,0.206732 0.348127,0.176825 0.860433,-0.182007 z M 8.2678076,7.2885001 C 7.988213,6.6134981 7.4789765,6.0771241 7.2936669,6.2624411 c -0.060661,0.06066 0.1033505,0.55006 0.3644891,1.08755 0.5319986,1.095015 1.0663718,1.041118 0.6096516,-0.06149 z m 5.2611184,0.492279 c 0.536737,-0.214757 0.797622,-0.436728 0.727641,-0.619096 -0.09077,-0.236516 -0.252908,-0.233557 -0.964774,0.01759 -0.470626,0.16604 -1.176769,0.301903 -1.569213,0.301903 -0.493278,0 -0.713538,0.09791 -0.713538,0.317194 0,0.432001 1.421023,0.422076 2.519884,-0.01758 z m 4.925678,-0.251106 c 0.340249,-0.291829 0.337308,-0.35766 -0.04986,-1.116535 -0.226269,-0.44353 -0.508774,-0.8665966 -0.627778,-0.9401472 -0.331097,-0.2046283 -1.058442,0.095309 -1.058442,0.4364762 0,0.344559 0.542284,0.411588 0.740118,0.09148 0.07185,-0.116298 0.244021,-0.2084491 0.382542,-0.2047649 0.138518,0.00363 -0.0049,0.1985049 -0.319204,0.4329319 -0.346665,0.258752 -0.523582,0.549917 -0.450253,0.741009 0.10642,0.277326 0.179771,0.276135 0.616468,-0.01006 0.758205,-0.49678 0.903898,-0.371829 0.219277,0.188062 -0.340943,0.278832 -0.543715,0.602418 -0.46118,0.735964 0.154533,0.25004 0.406976,0.161292 1.008301,-0.354463 z M 9.1050875,7.4283151 C 9.1042883,7.0386991 8.300952,5.7894785 8.0516797,5.7894785 c -0.3055615,0 -0.2738074,0.1296626 0.2612199,1.0666566 0.4776746,0.83655 0.7936649,1.064783 0.7921879,0.57218 z m 1.0581075,-1.4508 c 0,-0.103421 -0.3355005,-0.1880379 -0.7455525,-0.1880379 H 8.6720982 l 0.3499027,0.6766419 0.3499023,0.676637 0.3956419,-0.488603 c 0.2176064,-0.268731 0.3956499,-0.573218 0.3956499,-0.676638 z"
       id="path43" /><rect
       style="opacity:0.276392;fill:#ffff00;stroke:none;stroke-width:3.70655;stroke-linecap:round;paint-order:stroke markers fill;filter:url(#filter111)"
       id="rect111"
       width="4.8675022"
       height="3.9266009"
       x="17.640013"
       y="1.698853"
       rx="5.2916665"
       ry="3.9266009"
       transform="matrix(0.7079483,0,0,0.73054429,43.641933,3.594544)" /><rect
       style="opacity:0.276392;fill:#00ffff;stroke:none;stroke-width:3.70655;stroke-linecap:round;paint-order:stroke markers fill;filter:url(#filter111-67)"
       id="rect111-5"
       width="4.8675022"
       height="3.9266009"
       x="17.640013"
       y="1.698853"
       rx="5.2916665"
       ry="3.9266009"
       transform="matrix(0.66200576,0,0,0.68313536,45.154066,19.888392)" /><rect
       style="opacity:0.276392;fill:#18c6e7;fill-opacity:1;stroke:none;stroke-width:3.70655;stroke-linecap:round;paint-order:stroke markers fill;filter:url(#filter111-4)"
       id="rect111-2"
       width="4.8675022"
       height="3.9266009"
       x="17.640013"
       y="1.698853"
       rx="5.2916665"
       ry="3.9266009"
       transform="matrix(0.62047541,0,0,0.64027948,30.744501,10.565344)" /><path
       style="fill:#000000;stroke-width:0.265499"
       d="m 38.302124,13.624003 c -0.100476,-0.100476 -0.0377,-0.163909 0.162211,-0.163909 0.114973,0 0.312541,-0.0631 0.439042,-0.140231 0.307481,-0.187472 0.657216,-0.177051 1.224532,0.03649 0.258989,0.09748 0.501491,0.167042 0.538892,0.154574 0.0374,-0.01248 0.111831,-0.193921 0.165398,-0.403232 0.05357,-0.209312 0.192482,-0.52875 0.308704,-0.709863 l 0.211308,-0.329299 -0.143263,-0.234986 c -0.346453,-0.568268 -0.0542,-1.11307 0.597108,-1.11307 0.191212,0 0.242557,-0.02817 0.242557,-0.133065 0,-0.07319 0.09171,-0.231241 0.2038,-0.351233 0.15596,-0.166957 0.263962,-0.21817 0.460092,-0.21817 0.338572,0 0.643501,0.164934 0.774976,0.419181 0.121267,0.234504 0.140675,0.720505 0.03654,0.91508 -0.06069,0.113405 -0.02087,0.153329 0.298976,0.299761 0.202948,0.09291 0.467279,0.267215 0.587404,0.38734 l 0.218408,0.218409 0.400279,-0.356764 c 0.256892,-0.228964 0.424538,-0.332505 0.467998,-0.289044 0.04346,0.04346 -0.08263,0.191587 -0.352007,0.41351 -0.230851,0.190185 -0.421384,0.36244 -0.42341,0.382789 -0.0021,0.02035 0.241302,0.01633 0.540729,-0.0089 0.560374,-0.04728 0.68159,-0.03099 0.611657,0.08216 -0.02222,0.03597 -0.209824,0.06539 -0.416878,0.06539 -0.504829,0 -0.60755,0.04564 -0.556909,0.247416 0.05587,0.222616 -0.01951,0.253567 -1.376475,0.565107 -1.001981,0.230039 -1.292358,0.268377 -2.142524,0.282884 -0.841791,0.01437 -1.02805,-0.0027 -1.293047,-0.118771 -0.536943,-0.235089 -0.792698,-0.24312 -1.146131,-0.036 -0.305702,0.179154 -0.546037,0.230406 -0.639968,0.136475 z m 5.186546,-0.426219 c 0.61817,-0.138381 1.150215,-0.27446 1.182325,-0.302399 0.08151,-0.07093 -0.180832,-0.556983 -0.42074,-0.77952 -0.294659,-0.273325 -0.625038,-0.418871 -1.050477,-0.46278 -0.313026,-0.03231 -0.378451,-0.02008 -0.378451,0.07075 0,0.06039 -0.08093,0.205991 -0.179851,0.323549 -0.212116,0.252083 -0.559686,0.339012 -0.889649,0.222503 -0.217061,-0.07664 -0.241115,-0.06814 -0.425626,0.150568 -0.207326,0.245745 -0.438284,0.892159 -0.349148,0.977198 0.197054,0.187993 1.099942,0.116143 2.511617,-0.199867 z m -0.65394,-0.2345 c 0.0306,-0.09179 0.684672,-0.266282 1.022735,-0.272838 0.326439,-0.0063 0.141447,0.125953 -0.280986,0.200927 -0.241474,0.04286 -0.514399,0.09831 -0.606501,0.123235 -0.123901,0.03353 -0.159082,0.02018 -0.135248,-0.05132 z m 1.033219,-0.376644 c -0.01678,-0.01677 -0.259445,-0.04187 -0.539276,-0.05577 -0.650104,-0.03231 -0.663438,-0.162711 -0.01534,-0.15011 0.556613,0.01082 0.842686,0.06767 0.842686,0.167471 0,0.0677 -0.228327,0.09815 -0.288064,0.03842 z m -1.401812,-0.573876 c 0.08781,-0.08243 0.07838,-0.120201 -0.07025,-0.281532 -0.217922,-0.23655 -0.666793,-0.445248 -0.961933,-0.447243 -0.259119,-0.0017 -0.28958,0.09768 -0.126523,0.412995 0.226552,0.438107 0.847985,0.607464 1.158704,0.31578 z m 0.214434,-0.361522 c -8.06e-4,-0.173364 -0.323169,-0.535407 -0.580724,-0.652323 -0.348455,-0.15818 -0.531718,-0.16868 -0.701017,-0.04017 -0.178951,0.135843 -0.152054,0.183003 0.105372,0.184742 0.280322,0.0019 0.744056,0.207651 0.924094,0.410017 0.134008,0.150625 0.252768,0.196632 0.252275,0.09773 z m 0.704467,-0.338245 c 0.139236,-0.366217 0.08442,-0.660911 -0.170331,-0.915659 -0.251404,-0.251403 -0.416327,-0.289384 -0.698438,-0.160845 -0.165632,0.07547 -0.327161,0.326874 -0.327161,0.509199 0,0.04887 0.0965,0.160203 0.214454,0.247408 0.117951,0.08721 0.249468,0.235399 0.292261,0.32932 0.06287,0.137974 0.129935,0.170767 0.349257,0.170767 0.22675,0 0.282733,-0.02967 0.339958,-0.18019 z"
       id="path30" /><path
       style="fill:#000000;stroke-width:0.258616"
       d="M 58.722577,7.4329198 C 58.575193,7.2855367 58.552212,7.2126594 58.582325,6.9881541 c 0.03773,-0.2813376 0.001,-0.325453 -0.152627,-0.1829682 -0.07544,0.069996 -0.0841,0.06266 -0.04768,-0.040386 0.07296,-0.2064263 -0.02472,-0.2647981 -0.163885,-0.097934 -0.140291,0.1682165 -0.176099,0.1221214 -0.06557,-0.084406 0.120797,-0.22571 -0.07493,-0.2474161 -0.250661,-0.027801 -0.180374,0.2254234 -0.219589,0.1435571 -0.04834,-0.1009286 0.09366,-0.1337161 0.09642,-0.1692512 0.01709,-0.2196625 -0.06681,-0.042461 -0.149398,0.00499 -0.280958,0.161404 -0.217072,0.2580983 -0.253919,0.1955701 -0.05192,-0.088111 0.196098,-0.2753962 0.02997,-0.3613482 -0.183289,-0.09483 -0.179684,0.2245603 -0.219888,0.1439856 -0.04952,-0.099248 0.07413,-0.1058303 0.08788,-0.1805196 0.04174,-0.2266612 -0.04614,-0.04614 -0.140025,0.034677 -0.28491,0.2452551 -0.118849,0.1727408 -0.237702,0.3139592 -0.264119,0.313819 -0.137119,-7.291e-4 -0.500169,-0.2944926 -0.598171,-0.484009 -0.351252,-0.67925 0.48928,-1.3080091 1.183072,-0.8849949 0.259757,0.1583761 0.270533,0.2199211 0.08429,0.481468 -0.08167,0.1146897 -0.110537,0.2109561 -0.07066,0.2356003 0.03708,0.022921 0.10663,-0.021104 0.154549,-0.097834 0.04792,-0.076728 0.114049,-0.1395057 0.146959,-0.1395057 0.03291,0 0.01125,0.074155 -0.04814,0.1647887 -0.09216,0.1406498 -0.09393,0.1764401 -0.01213,0.2443309 0.07689,0.063814 0.117329,0.037991 0.2045,-0.130576 0.05976,-0.1155647 0.137618,-0.2101182 0.173017,-0.2101182 0.0354,0 0.0024,0.1050613 -0.07339,0.2334691 -0.182337,0.3090373 -0.04449,0.4110663 0.181699,0.1344879 0.186095,-0.2275507 0.219916,-0.171812 0.05161,0.085056 -0.09634,0.1470343 -0.09928,0.183801 -0.01867,0.23362 0.06147,0.037991 0.139021,0.019887 0.216974,-0.050655 0.129372,-0.1170812 0.172235,-0.030022 0.04692,0.095297 -0.116336,0.1163353 0.05868,0.1876871 0.192834,0.078618 0.09796,-0.079643 0.106367,-0.075198 0.06521,0.034497 -0.07225,0.192568 0.0134,0.2639483 0.178192,0.1485166 0.13192,-0.092402 0.732962,-0.1510617 0.732962,-0.071536 0,0.017509 -0.09066,0.1747878 -0.20146,0.3495066 -0.110804,0.1747188 -0.221021,0.4067237 -0.244928,0.5155673 -0.05375,0.2447178 -0.190242,0.2517418 -0.420354,0.021631 z m 0.351695,-0.157426 c 0.02377,-0.108262 0.118601,-0.2989933 0.210715,-0.4238465 0.09211,-0.1248533 0.16748,-0.2404488 0.16748,-0.2568785 0,-0.087327 -0.521794,0.072827 -0.659856,0.2025284 -0.188177,0.1767844 -0.202352,0.3122066 -0.05473,0.5229614 0.146355,0.2089511 0.284715,0.1905394 0.336394,-0.044766 z M 57.180091,5.7972773 57.535913,5.2854541 57.351072,5.1643416 c -0.27519,-0.1803115 -0.721091,-0.1590283 -0.938028,0.044771 -0.255733,0.2402492 -0.245559,0.6309789 0.02343,0.8999737 0.110008,0.1100073 0.242264,0.200013 0.293902,0.200013 0.05164,0 0.254007,-0.2303206 0.449707,-0.5118237 z M 56.814659,5.6193016 c -0.02558,-0.041401 -0.125279,-0.055691 -0.226421,-0.032455 l -0.180706,0.041513 0.163797,-0.1292199 c 0.09121,-0.071956 0.142487,-0.1637034 0.115708,-0.2070347 -0.02645,-0.042797 -0.01549,-0.077814 0.02436,-0.077814 0.03985,0 0.07246,0.034385 0.07246,0.076406 0,0.042719 0.06034,0.060627 0.136849,0.040616 0.157598,-0.04121 0.187564,0.054149 0.03537,0.1125535 -0.05775,0.022159 -0.08408,0.084295 -0.0611,0.1441718 0.04609,0.120117 -0.01154,0.1425471 -0.08033,0.031261 z"
       id="path44" /><path
       style="fill:#000000;stroke-width:0.247838"
       d="m 56.774312,16.062449 c -0.197461,-0.05535 -0.426149,-0.163698 -0.508197,-0.240778 -0.138634,-0.13024 -0.149178,-0.194149 -0.149178,-0.90417 0,-0.707655 0.01088,-0.774222 0.147541,-0.902235 0.08115,-0.07602 0.233248,-0.170687 0.338001,-0.210381 l 0.19046,-0.07217 -0.170588,-0.178099 c -0.470491,-0.491204 -0.483317,-1.185223 -0.0305,-1.650244 0.277682,-0.285165 0.576337,-0.406075 1.00303,-0.406075 0.703672,0 1.214937,0.453328 1.263161,1.120019 0.0302,0.417518 -0.06739,0.67781 -0.353671,0.94326 l -0.168745,0.156469 0.316885,0.157105 0.316885,0.157105 0.03279,0.657349 c 0.04992,1.000836 0.02721,1.083397 -0.349338,1.270088 -0.410023,0.203287 -1.33866,0.254085 -1.878534,0.102758 z m 1.818035,-0.217955 c 0.196681,-0.10076 0.280358,-0.185797 0.284362,-0.288982 0.03648,-0.94017 0.03267,-0.974213 -0.104034,-0.930361 -0.934354,0.299716 -1.676417,0.298978 -2.409837,-0.0024 -0.103622,-0.04258 -0.114754,0.0034 -0.114754,0.474288 0,0.596646 0.05649,0.685433 0.535662,0.841957 0.433799,0.141702 1.451315,0.08853 1.808601,-0.09451 z m -2.147541,-0.631911 c 0,-0.198361 0.02951,-0.360656 0.06557,-0.360656 0.03607,0 0.06557,0.162295 0.06557,0.360656 0,0.19836 -0.02951,0.360655 -0.06557,0.360655 -0.03606,0 -0.06557,-0.162295 -0.06557,-0.360655 z m 2.13157,-0.663767 c 0.45572,-0.236364 0.376111,-0.483881 -0.210475,-0.654406 l -0.35683,-0.103734 0.268768,-0.230055 c 0.334736,-0.286522 0.46205,-0.526966 0.46205,-0.872629 0,-0.863635 -1.000095,-1.359411 -1.798449,-0.891544 -0.303909,0.178101 -0.562208,0.590838 -0.562208,0.898352 0,0.256646 0.275373,0.735016 0.505671,0.878438 0.251272,0.156483 0.264446,0.207106 0.0681,0.261675 -0.318274,0.08846 -0.633456,0.251346 -0.66985,0.346189 -0.05692,0.148329 0.146005,0.333328 0.484495,0.441699 0.449427,0.143888 1.469074,0.10218 1.808728,-0.07399 z m -1.918455,-0.12252 c -0.256576,-0.111519 -0.267627,-0.191366 -0.04653,-0.336232 0.224539,-0.147124 1.256386,-0.194328 1.701509,-0.07784 0.416973,0.109121 0.4727,0.275307 0.139063,0.41471 -0.308646,0.12896 -1.496837,0.128537 -1.794038,-6.45e-4 z m 1.733436,-0.103571 c 0.17154,-0.06522 0.17578,-0.07512 0.05995,-0.139944 -0.189284,-0.105931 -1.211051,-0.14411 -1.531087,-0.05721 -0.305507,0.08295 -0.361158,0.17676 -0.131148,0.221062 0.31021,0.05975 1.42605,0.0431 1.602289,-0.02391 z m -1.221811,-0.742778 c -0.342883,-0.123872 -0.604264,-0.486103 -0.609689,-0.844931 -0.0088,-0.579084 0.404121,-0.96528 1.031467,-0.964812 1.108,7.43e-4 1.396705,1.376168 0.380178,1.81111 -0.254001,0.10868 -0.498492,0.108263 -0.801956,-0.0014 z m 0.83525,-0.164403 c 0.587154,-0.30145 0.623273,-0.995987 0.0722,-1.388384 -0.376353,-0.267987 -1.015564,-0.146859 -1.269401,0.240544 -0.150531,0.229741 -0.143187,0.658788 0.01497,0.874774 0.152531,0.208297 0.512482,0.397735 0.755996,0.397871 0.100617,5.6e-5 0.292421,-0.05611 0.42623,-0.124805 z m -0.748298,-0.100465 c -0.38867,-0.169159 -0.523417,-0.561377 -0.324807,-0.945447 0.113025,-0.218563 0.353182,-0.337379 0.681938,-0.337379 0.729827,0 0.959353,0.964537 0.303578,1.275723 -0.258238,0.122541 -0.392162,0.123981 -0.660709,0.0071 z m 0.627078,-0.133292 c 0.222609,-0.115115 0.352187,-0.431431 0.267731,-0.653566 -0.147366,-0.387603 -0.736836,-0.498045 -1.021108,-0.191311 -0.451,0.486639 0.14772,1.158075 0.753377,0.844877 z m -0.655751,-0.169793 c -0.185846,-0.185845 -0.14822,-0.500613 0.08013,-0.670323 0.274679,-0.204144 0.662958,-0.05123 0.746105,0.29384 0.09526,0.395321 -0.524838,0.677875 -0.82623,0.376483 z m 0.629966,-0.155671 c 0.201855,-0.308069 -0.147746,-0.609886 -0.465376,-0.401767 -0.183987,0.120554 -0.20762,0.308319 -0.05768,0.45826 0.154465,0.154465 0.402374,0.127689 0.523055,-0.05649 z"
       id="path139" /><rect
       style="opacity:0.276392;fill:#ffff00;stroke:none;stroke-width:3.70655;stroke-linecap:round;paint-order:stroke markers fill;filter:url(#filter111-2)"
       id="rect111-8"
       width="4.8675022"
       height="3.9266009"
       x="17.640013"
       y="1.698853"
       rx="5.2916665"
       ry="3.9266009"
       transform="matrix(0.7079483,0,0,0.73054429,42.793659,12.26401)" /><path
       style="fill:#000000;stroke-width:0.220422"
       d="m 41.818278,22.304184 c -0.05913,-0.03438 -0.143998,-0.149795 -0.188576,-0.256484 -0.05241,-0.125449 -0.127751,-0.200611 -0.213236,-0.212745 -0.193355,-0.02745 -0.344824,-0.356003 -0.267017,-0.579201 0.07975,-0.228769 0.242874,-0.306235 0.554824,-0.263477 0.237633,0.03257 0.274056,0.01898 0.490048,-0.182811 0.228487,-0.213468 0.233619,-0.227087 0.247008,-0.655398 0.01701,-0.54421 0.202319,-0.976454 0.601622,-1.403343 0.352304,-0.376639 0.631197,-0.521222 1.005418,-0.521222 0.367845,0 0.568,0.07606 0.815143,0.309758 0.395706,0.374179 0.514345,0.897467 0.306606,1.352366 -0.303287,0.664124 -1.378502,1.268604 -2.059853,1.158036 -0.176249,-0.0286 -0.222284,-0.0057 -0.413685,0.206203 -0.199995,0.22137 -0.214376,0.261687 -0.201472,0.564826 0.012,0.281901 -0.0049,0.341659 -0.123786,0.43799 -0.151633,0.122856 -0.386699,0.142195 -0.553044,0.0455 z m 0.478795,-0.159421 c 0.08535,-0.08535 0.103328,-0.170293 0.08334,-0.393661 -0.02419,-0.270244 -0.01185,-0.300247 0.241091,-0.585842 0.311051,-0.351213 0.349553,-0.544631 0.108417,-0.544631 -0.107583,0 -0.238965,0.07928 -0.410771,0.24786 -0.238991,0.23451 -0.269225,0.247137 -0.561246,0.234425 -0.366845,-0.01597 -0.517355,0.07307 -0.517355,0.306061 0,0.184075 0.190341,0.378057 0.370962,0.378057 0.07796,0 0.11018,0.04167 0.11018,0.142493 0,0.153209 0.191332,0.324068 0.362897,0.324068 0.05702,0 0.152637,-0.04897 0.212494,-0.10883 z m 1.357774,-1.253558 c 0.860824,-0.202614 1.554607,-0.928536 1.493658,-1.562849 -0.08115,-0.844515 -1.047022,-1.268768 -1.735628,-0.76236 -0.495945,0.36472 -0.896455,1.126333 -0.862933,1.64096 0.014,0.214992 0.04004,0.270199 0.13402,0.284198 0.359701,0.05358 0.377209,0.06593 0.342125,0.241355 -0.02649,0.132428 -0.01044,0.174783 0.0745,0.196646 0.176357,0.04539 0.209937,0.04309 0.554258,-0.03795 z m -0.882832,-0.868358 c 7.72e-4,-0.25533 0.232173,-0.736417 0.493192,-1.025334 0.375609,-0.415754 0.925345,-0.522677 1.266261,-0.246287 0.201815,0.163618 0.09962,0.196756 -0.163057,0.05287 -0.34367,-0.188248 -0.601436,-0.119731 -0.982258,0.26109 -0.299456,0.299456 -0.498068,0.702921 -0.498068,1.011786 0,0.07448 -0.02624,0.13541 -0.05832,0.13541 -0.03208,0 -0.05807,-0.08529 -0.05775,-0.18954 z"
       id="path137" /><path
       style="fill:#000000;stroke-width:0.215376"
       d="m 57.443796,24.927187 c -0.0301,-0.03917 -0.149031,-0.229093 -0.264284,-0.422034 -0.173214,-0.289976 -0.283503,-0.396896 -0.636062,-0.616636 -0.234582,-0.146209 -0.426513,-0.287837 -0.426513,-0.314731 0,-0.04462 0.239909,-0.104803 0.812035,-0.203684 0.206157,-0.03563 0.21376,-0.04525 0.215554,-0.272775 10e-4,-0.129714 0.05352,-0.376882 0.116671,-0.549262 0.06314,-0.172379 0.128064,-0.353156 0.144262,-0.401724 0.01981,-0.05938 -0.06505,-0.152722 -0.259022,-0.284925 -0.158662,-0.10814 -0.288525,-0.217104 -0.288585,-0.242143 -2.8e-4,-0.116448 0.499327,-0.265435 0.894145,-0.266641 0.299303,-8.46e-4 0.460727,-0.0308 0.598342,-0.110806 0.341296,-0.198402 0.830887,-0.305576 1.256735,-0.275107 0.21615,0.01547 0.417344,0.05246 0.447097,0.08222 0.02975,0.02976 0.06976,0.221918 0.08892,0.427033 0.04065,0.435305 -0.04565,0.874107 -0.243074,1.235984 -0.103123,0.189021 -0.136793,0.340707 -0.139143,0.626835 -0.003,0.372166 -0.141164,0.862684 -0.253333,0.899756 -0.03135,0.01036 -0.145463,-0.110976 -0.253602,-0.269633 -0.132204,-0.19396 -0.225549,-0.278817 -0.284925,-0.259013 -0.04857,0.0162 -0.229345,0.08111 -0.401725,0.144263 -0.17238,0.06314 -0.419123,0.115647 -0.54832,0.11667 -0.2298,0.0018 -0.235699,0.0069 -0.271563,0.231118 -0.0738,0.461528 -0.159418,0.796472 -0.203591,0.796472 -0.02491,0 -0.06991,-0.03205 -0.10002,-0.07123 z m 0.155378,-0.559325 c 0.03735,-0.221438 0.05421,-0.416313 0.03747,-0.433053 -0.01674,-0.01674 -0.0978,0.102495 -0.180131,0.264967 -0.140306,0.276881 -0.144037,0.304038 -0.0595,0.433054 0.0496,0.07571 0.100104,0.137649 0.11222,0.137649 0.01212,0 0.05259,-0.181178 0.08994,-0.402617 z m -0.224757,-0.2616 c 0.152125,-0.354894 0.119208,-0.406576 -0.108994,-0.171132 -0.169895,0.175289 -0.18144,0.207342 -0.113724,0.315772 0.04145,0.06638 0.08293,0.120681 0.09218,0.120681 0.0092,0 0.06799,-0.119395 0.130541,-0.265321 z m -0.174766,-0.276036 c 0.222488,-0.229548 0.179471,-0.247219 -0.196717,-0.08081 -0.247791,0.109609 -0.260263,0.124642 -0.163953,0.197635 0.142706,0.108157 0.14257,0.1082 0.36067,-0.116821 z m 2.395427,-0.01424 c 0.03499,-0.117531 0.05525,-0.324047 0.04502,-0.458925 l -0.01859,-0.245233 -0.241575,0.246767 -0.241576,0.246768 0.150953,0.212158 c 0.08303,0.116687 0.171472,0.21216 0.196549,0.21216 0.02508,0 0.07422,-0.09616 0.109215,-0.213695 z m -0.840369,-0.158309 c 0.198448,-0.09717 0.462592,-0.302498 0.678788,-0.527643 l 0.353921,-0.368573 -0.253907,-0.129317 c -0.374634,-0.190804 -0.781069,-0.573507 -0.976125,-0.919126 -0.09456,-0.167555 -0.204044,-0.304646 -0.243293,-0.304646 -0.122148,0 -0.694507,0.646086 -0.857761,0.968253 -0.09295,0.183428 -0.167666,0.44144 -0.185824,0.641691 -0.03027,0.333761 -0.0295,0.335801 0.220065,0.59292 l 0.250435,0.258008 0.344417,-0.02625 c 0.217504,-0.01657 0.464128,-0.08487 0.669284,-0.185319 z m 0.320172,-0.929745 c -0.391397,-0.248218 -0.892793,-0.876265 -0.835876,-1.047017 0.0113,-0.0339 0.104414,0.06905 0.206918,0.228795 0.204385,0.318505 0.489433,0.597037 0.819433,0.800698 0.117531,0.07254 0.213693,0.142614 0.213693,0.155728 0,0.06667 -0.176012,0.0065 -0.404168,-0.138204 z m -2.152594,0.927514 c 0.158783,-0.08046 0.275,-0.15999 0.258259,-0.176731 -0.01674,-0.01674 -0.216868,10e-4 -0.444727,0.03945 l -0.41429,0.06988 0.131957,0.106852 c 0.162757,0.131793 0.124542,0.135008 0.468801,-0.03945 z m 3.027339,-1.364018 c 0.113213,-0.321768 0.112353,-1.006739 -0.0014,-1.120499 -0.187266,-0.187265 -1.335019,-0.06247 -1.418161,0.154191 -0.03928,0.102353 0.25025,0.562907 0.50417,0.801989 0.268659,0.252961 0.629734,0.48285 0.729745,0.464617 0.04701,-0.0086 0.130556,-0.143706 0.185652,-0.300298 z M 58.931085,21.66813 c -0.0607,-0.15818 0.0041,-0.288253 0.14364,-0.288253 0.179753,0 0.28158,0.158173 0.180349,0.280149 -0.09355,0.112723 -0.282034,0.117438 -0.323989,0.0081 z m 0.214602,-0.117299 c 0,-0.02977 -0.02757,-0.06333 -0.06126,-0.07455 -0.03369,-0.01123 -0.06126,0.02232 -0.06126,0.07455 0,0.05224 0.02757,0.08579 0.06126,0.07455 0.03369,-0.01123 0.06126,-0.04478 0.06126,-0.07455 z m -1.387386,-0.07558 c -0.258797,-0.01962 -0.67262,0.07613 -0.67262,0.155632 0,0.02584 0.09616,0.111992 0.213693,0.191442 l 0.213695,0.144455 0.245232,-0.236469 0.245232,-0.236468 z"
       id="path135" /></g></svg>
